<svg width="1440" height="618" viewBox="0 0 1440 618" fill="none" xmlns="http://www.w3.org/2000/svg">
<g style="mix-blend-mode:overlay">
<rect width="1440" height="618" fill="#036AF5" fill-opacity="0.50"/>
</g>
<g clip-path="url(#clip0_169_23926)">
<path fill-rule="evenodd" clip-rule="evenodd" d="M1308.82 188.278C1307.75 189.319 1305.56 190.031 1304.23 190.838C1300.36 191.688 1297.54 195.121 1293.45 195.576C1292.15 195.473 1294.71 194.109 1294.76 194.058C1298.31 192.862 1301.77 191.409 1305.11 189.708C1305.58 189.708 1308.77 187.551 1308.82 188.278ZM1271.01 234.248C1270.97 234.276 1270.94 234.311 1270.92 234.35C1269.11 233.859 1266.73 235.26 1264.86 234.937C1264.13 234.541 1267.29 234.358 1267.62 234.336C1267.82 234.519 1270.97 233.727 1271.01 234.248ZM1294.89 196.552C1293.6 197.269 1292.21 197.779 1290.76 198.063C1288.8 197.909 1283.64 202.119 1282.4 200.997C1284.1 198.921 1288.82 198.796 1291.12 197.542C1291.62 197.542 1294.79 195.884 1294.86 196.566L1294.89 196.552ZM1309 175.228C1308.94 175.228 1308.71 175.331 1308.5 175.382C1308.04 175.309 1308.35 174.649 1309 175.228ZM1284.46 200.381C1284.46 200.381 1284.46 200.344 1284.41 200.307C1284.2 200.249 1284.31 200.439 1284.46 200.381ZM1284.1 200.483C1284.1 200.359 1283.9 200.256 1283.84 200.41C1284.07 200.498 1284.07 200.498 1284.1 200.483ZM1211.73 269.949L1211.64 270.015C1210.91 270.073 1211.64 268.973 1211.73 269.949ZM1232.91 241.473C1232.49 241.81 1231.8 241.576 1231.37 241.752C1229.8 241.532 1225.78 243.446 1224.39 242.647C1224.31 241.7 1228.57 242.067 1229.3 241.708C1229.79 241.708 1232.96 240.85 1232.91 241.473ZM1213.94 263.919C1213.66 264.154 1213.51 264.102 1213.21 263.853C1213.08 263.288 1214 263.376 1213.94 263.919ZM1277.24 182.27C1277.09 182.387 1275.48 183.18 1276.41 182.6C1276.57 182.541 1277.18 182.211 1277.24 182.27ZM1207.41 267.403C1206.84 267.755 1206.59 266.31 1207.41 267.029C1207.4 267.154 1207.4 267.279 1207.41 267.403ZM1276.1 182.923C1276.1 182.864 1276.1 182.864 1276.1 182.827C1275.92 182.879 1275.94 183.055 1276.1 182.923ZM1211.91 260.537C1211.85 260.577 1211.8 260.621 1211.75 260.669C1211.46 260.596 1211.89 260.185 1211.91 260.537ZM1216.12 253.804C1215.6 254.17 1211.07 252.674 1210.25 252.373C1209.15 251.64 1208.38 252.094 1207.32 252.571C1206.5 252.337 1203.55 252.755 1203.55 252.681C1202.27 251.794 1204.07 247.84 1204.76 246.813C1206.76 244.899 1207.83 249.468 1209.02 250.547C1210.17 251.139 1211.37 251.63 1212.61 252.014C1213.45 252.601 1216.43 252.586 1216.18 253.833L1216.12 253.804ZM1222.31 244.084C1221.9 244.341 1219.92 246.527 1219.51 246.417C1219.63 246.241 1222.58 242.999 1222.31 244.084ZM1235.93 224.602C1235.65 224.837 1235.41 224.661 1235.85 224.477C1235.87 224.525 1235.9 224.568 1235.93 224.602ZM1235.52 224.807C1235.46 224.573 1232.79 225.695 1232.76 225.709C1232.6 225.709 1230.39 226.538 1230.91 226.56C1231.7 226.355 1235.06 225.365 1235.52 224.807ZM1206.53 258.212L1206.38 258.249C1206.07 257.97 1206.61 257.897 1206.53 258.212ZM1198.61 266.743C1198.54 266.815 1198.46 266.876 1198.38 266.926C1197.92 266.516 1198.67 266.193 1198.61 266.743ZM1200.88 263.699C1201.72 262.158 1202.64 260.185 1202.5 258.564C1203.29 255.256 1200.09 251.603 1196.73 251.5C1194.53 250.906 1192.12 251.852 1190.39 253.202C1187.32 256.312 1187.54 259.415 1189.21 263.053C1189.05 263.244 1189.78 263.618 1189.94 264.036C1191.62 265.841 1194.39 267.411 1196.47 266.516C1196.9 266.442 1198.27 266.362 1198.3 266.303C1198.03 265.628 1200.31 264.19 1200.86 263.728L1200.88 263.699ZM1277.92 167.805C1277.48 168.179 1276.99 168.538 1276.55 168.934C1276.3 169.103 1272.55 172.008 1274.65 170.042C1275.39 169.991 1277.5 167.423 1277.92 167.805ZM1273.75 170.93C1273.49 170.79 1271.14 172.69 1270.97 172.866C1271.28 173.152 1273.46 171.216 1273.75 170.93ZM1239.4 210.005C1239.24 210.115 1239.12 209.924 1239.34 209.909C1239.34 209.909 1239.34 209.983 1239.4 210.005ZM1239.08 210.063C1238.14 210.797 1236.23 210.936 1235.09 211.428C1234.87 211.494 1231.84 212.528 1231.97 212.381C1232.41 212.183 1238.85 209.851 1239.08 210.063ZM1213.83 235.928C1213.76 235.979 1213.64 236.03 1213.62 235.876C1213.74 235.685 1213.73 235.832 1213.83 235.928ZM1207.69 242.793C1207.49 243.028 1207.2 242.346 1207.38 242.507C1207.61 241.979 1207.66 242.463 1207.69 242.793ZM1270.73 165.773C1269.63 166.448 1268.1 165.325 1266.94 165.399C1265.34 164.665 1263.51 165.634 1262.02 164.702C1261.03 164.768 1255.74 164.797 1256.16 166.345C1255.63 168.604 1257.82 166.47 1258.26 165.839C1259.54 165.436 1257.04 167.306 1258.14 168.318C1258.87 170.196 1256.13 169.257 1255.21 170.101C1254.63 170.35 1252.19 172.756 1252.86 171.626C1254.03 170.108 1254.29 170.644 1253.05 169.661C1250.85 169.807 1244.25 174.546 1242.69 171.788C1242.14 171.15 1241.42 171.663 1240.9 171.179C1240.5 170.108 1238.01 168.978 1237.03 168.362C1236.7 168.418 1236.36 168.432 1236.02 168.406C1236.1 167.632 1236.25 166.868 1236.48 166.125C1237.69 164.797 1236.01 165.193 1237.4 163.499C1237.48 162.765 1237.07 162.692 1237.77 162.032C1239.37 161.218 1238.2 159.963 1238.94 158.408C1238.17 156.494 1240.51 156.413 1240.79 155.049C1241.83 153.934 1242.63 154.389 1243.87 154.036C1245.01 152.643 1246.45 151.711 1247.98 153.105C1248.27 153.319 1248.59 153.471 1248.94 153.553C1249.29 153.635 1249.66 153.645 1250.01 153.582C1250.9 153.838 1253.71 153.787 1254.48 154.484C1257.07 155.217 1260.05 156.905 1262.66 156.156C1263.04 156.259 1263.94 156.046 1264.02 156.846C1262.68 159.619 1258.89 155.21 1257.82 158.313C1258.15 159.545 1258.87 159.78 1260.12 159.186C1260.87 159.172 1261.62 159.306 1262.32 159.582C1262.84 159.949 1263.09 159.479 1263.61 159.45C1265.49 158.636 1264.48 160.917 1263.49 160.345C1262.62 160.161 1261.44 160.066 1260.68 160.697C1259.52 160.778 1255.75 160.873 1258.27 163.147C1258.64 163.389 1259.81 163.741 1260.05 163.954C1261.35 162.377 1267.85 166.118 1268.94 164.79C1269.61 164.629 1270.97 164.79 1270.74 165.788L1270.73 165.773ZM1251.97 188.314C1251.48 188.688 1251.45 188.402 1251.78 188.256C1251.52 188.784 1252.07 188.065 1251.97 188.314ZM1251.55 188.674C1251.36 188.498 1249.05 190.258 1248.72 190.5C1247.86 190.779 1248.91 191.036 1248.64 190.654C1249.54 189.896 1250.53 189.232 1251.57 188.674H1251.55ZM1256.18 181.786C1255.72 182.123 1255.23 182.413 1254.71 182.651C1254.05 183.326 1253.25 184.221 1252.35 184.28C1251.02 183.92 1256.13 181.067 1256.19 181.786H1256.18ZM1248.24 191.116C1248.16 191.167 1248.07 191.224 1247.99 191.285C1247.83 191.226 1248.09 190.977 1248.24 191.116ZM1233.79 208.604C1233.53 208.376 1228.07 211.23 1227.48 211.538C1227.29 211.765 1231.62 209.675 1232.42 209.337C1232.85 209.073 1233.35 208.897 1233.79 208.604ZM1247.8 191.41C1246.89 191.975 1246.09 192.877 1245.15 193.383C1244.94 193.383 1243.99 194.307 1244.09 193.867C1244.69 193.427 1247.5 191.138 1247.8 191.41ZM1212.57 233.155C1212.53 233.177 1212.49 233.21 1212.47 233.25C1212.13 233.162 1212.47 232.898 1212.57 233.155ZM1212.4 233.353C1212.37 233.324 1212.35 233.289 1212.34 233.25C1212.15 233.191 1212.11 233.485 1212.4 233.353ZM1188.13 262.547C1187.89 262.635 1186.66 262.782 1187.51 262.423C1187.51 262.423 1188.24 262.371 1188.13 262.547ZM1242.94 194.997C1241.48 195.921 1240.01 197.608 1238.35 198.54C1236.42 199.192 1237.07 199.552 1239.44 197.073C1240.06 196.897 1242.64 194.696 1242.94 194.967V194.997ZM1187.08 262.613C1186.96 262.547 1186.76 262.423 1186.66 262.555C1186.79 262.617 1186.94 262.638 1187.08 262.613ZM1240.51 196.676C1240.25 196.442 1240.13 197.168 1240.33 196.757C1240.39 196.723 1240.45 196.696 1240.51 196.676ZM1203.22 242.155C1203.41 241.312 1199.6 242.889 1199.31 242.617C1198.5 242.749 1194.71 243.219 1194.18 243.666C1193.84 243.351 1189.26 244.913 1189.44 244.935C1191.58 244.466 1193.91 244.414 1195.99 243.71C1196.6 243.886 1201.51 242.617 1202.08 242.368C1202.31 242.485 1202.98 242.258 1203.19 242.155H1203.22ZM1239.61 197.366C1239.57 196.867 1239.11 197.777 1239.41 197.417L1239.61 197.366ZM1227.28 211.772C1225.66 212.792 1223.61 213.328 1222 214.369C1221.45 214.215 1218.86 216.174 1218.53 215.888C1217 216.452 1220.33 214.604 1220.73 214.42C1221.92 214.516 1226.72 211.303 1227.25 211.78L1227.28 211.772ZM1237 199.302C1236.95 199.251 1236.71 199.361 1236.81 199.449C1236.86 199.413 1236.93 199.354 1237 199.302ZM1236.65 199.662C1236.57 199.471 1235.19 200.711 1234.79 200.843C1234.31 201.415 1230.54 203.344 1230.59 204.019C1230.54 204.07 1230.59 204.1 1230.59 204.114C1232.66 202.801 1234.93 201.518 1236.62 199.662H1236.65ZM1184.46 262.914C1184.29 263.068 1184.2 262.914 1184.1 263.053C1183.66 262.745 1184.04 262.18 1184.46 262.914ZM1234.4 201.518C1234.33 201.57 1234.25 201.605 1234.16 201.62C1233.98 201.452 1234.39 201.268 1234.4 201.518ZM1233.98 201.76C1233.9 201.76 1233.9 201.76 1233.76 201.958C1233.64 201.921 1233.84 201.642 1233.98 201.76ZM1233.07 202.369C1232.99 202.434 1232.91 202.508 1232.85 202.589C1232.65 202.589 1232.9 202.215 1233.07 202.369ZM1236.82 197.381C1236.63 197.205 1232.95 200.153 1234.97 198.899C1235.56 198.361 1236.18 197.854 1236.82 197.381ZM1182.84 262.716C1182.69 262.797 1182.34 262.474 1182.62 262.547C1182.99 262.437 1182.76 261.909 1182.84 262.716ZM1234.23 199.442C1234.08 199.545 1233.94 199.668 1233.82 199.809C1233.04 200.285 1234.12 199.009 1234.23 199.442ZM1182.39 262.525C1182.39 262.203 1181.9 262.063 1181.93 262.467L1182.39 262.525ZM1233.51 200.036C1233.32 200.197 1232.41 201.092 1232.23 200.924C1232.3 200.806 1233.32 199.867 1233.51 200.036ZM1231.88 201.393C1230.68 202.259 1229.68 203.513 1228.4 204.202C1228.28 203.909 1231.86 201.166 1231.88 201.393ZM1181.82 262.276C1181.66 262.393 1181.45 262.202 1181.3 262.379C1181.19 261.924 1181.62 262.107 1181.82 262.276ZM1243.51 186.561C1243.18 186.656 1243.2 186.15 1243.51 186.458C1243.51 186.493 1243.51 186.527 1243.51 186.561ZM1181.11 262.21C1180.89 262.305 1180.86 262.32 1180.62 262.173C1180.73 262.041 1181.09 261.902 1181.11 262.21ZM1194.84 245.009C1194.72 245.06 1194.72 245.06 1194.66 245.06C1194.33 245.265 1194.59 244.789 1194.84 245.009ZM1276.28 145.528C1276.22 145.537 1276.15 145.552 1276.09 145.572C1276.09 145.381 1276.14 145.403 1276.28 145.528ZM1194.45 245.287C1194.45 245.082 1194.37 245.097 1194.27 245.221C1194.32 245.265 1194.37 245.317 1194.45 245.287ZM1276.03 145.616C1275.9 145.689 1275.82 145.733 1275.72 145.616C1275.72 145.388 1275.96 145.535 1276.03 145.616ZM1267.01 156.619C1266.81 156.435 1265.54 157.858 1265.76 158.042C1266.15 157.544 1266.57 157.068 1267.01 156.619ZM1263.97 159.941C1263.94 159.831 1263.97 159.714 1263.82 159.941C1263.87 159.985 1263.95 159.941 1263.97 159.941ZM1180.29 261.902C1179.96 262.114 1179.68 261.777 1180.14 261.74C1180.18 261.803 1180.23 261.857 1180.29 261.902ZM1193.99 245.133L1193.79 245.221C1193.58 245.038 1194.1 245.001 1193.99 245.133ZM1272 149.775L1271.74 149.995C1271.74 149.958 1271.83 149.628 1272 149.775ZM1271.58 150.193C1271.34 150.373 1271.12 150.593 1270.95 150.846C1270.86 150.765 1271.41 150.031 1271.58 150.193ZM1179.73 261.425C1179.66 261.425 1179.4 261.491 1179.51 261.352C1179.58 261.371 1179.66 261.395 1179.73 261.425ZM1193.61 244.07C1193.54 244.07 1193.47 244.136 1193.4 244.158C1193.4 243.938 1193.48 243.96 1193.61 244.07ZM1193.05 244.282C1192.95 244.29 1192.85 244.272 1192.76 244.231C1192.84 244.026 1192.9 244.143 1193.05 244.282ZM1178.99 261.388C1178.83 261.491 1178.65 261.388 1178.53 261.242C1178.6 260.963 1178.91 261.315 1178.99 261.388ZM1178.26 260.889C1177.25 261.344 1173.55 257.919 1173.55 257.919C1173.75 258.146 1175.69 258.968 1175.23 259.158C1175.12 259.665 1175.83 259.29 1175.97 259.415C1176.76 259.863 1177.52 260.353 1178.26 260.882V260.889ZM1213.15 217.611C1212.77 217.779 1212.37 217.871 1211.96 217.883C1211.33 218.161 1212.85 217.267 1213.15 217.611ZM1272.92 143.877C1272.82 143.95 1272.75 144.024 1272.67 144.09C1272.59 144.156 1272.82 143.65 1272.92 143.877ZM1272.51 144.281C1272.39 144.398 1272.29 144.515 1272.21 144.618C1272.08 144.501 1272.41 144.2 1272.51 144.281ZM1272.02 144.801C1271.89 144.919 1271.77 145.036 1271.67 145.146C1271.57 145.065 1271.93 144.721 1272.02 144.801ZM1244.95 177.759C1244.15 178.365 1243.42 179.048 1242.75 179.798C1242.41 179.6 1245.09 177.297 1244.95 177.759ZM1176.95 260.266C1176.87 260.193 1176.83 260.017 1176.77 260.222C1176.85 260.288 1176.87 260.31 1176.95 260.266ZM1241.46 180.942C1241.28 180.774 1239.48 182.6 1239.26 182.827C1235.42 187.091 1231.27 191.069 1226.85 194.733C1226.59 195.048 1225.22 196.427 1225.53 196.566C1227.06 195.738 1228.32 194.006 1229.47 192.671C1233.57 188.842 1237.53 184.896 1241.48 180.935L1241.46 180.942ZM1271.99 143.628C1271.91 143.708 1271.83 143.782 1271.76 143.862C1271.69 143.943 1271.83 143.474 1271.99 143.628ZM1271.62 144.031C1271.58 144.083 1271.28 144.354 1271.23 144.31C1271.3 144.193 1271.5 143.914 1271.62 144.031ZM1271.2 144.464C1271.13 144.515 1271.07 144.574 1271.01 144.64C1270.91 144.64 1271.08 144.361 1271.2 144.464ZM1270.64 145.08C1270.47 145.19 1270.45 145.014 1270.64 144.977C1270.68 145.014 1270.68 145.014 1270.64 145.08ZM1269.38 146.444C1269.3 146.511 1269.28 146.591 1269.18 146.511C1269.37 146.232 1269.67 146.078 1269.38 146.444ZM1267.76 148.183C1267.51 148.308 1267.09 148.711 1267.76 147.912C1267.83 148.022 1267.9 148.044 1267.76 148.183ZM1215.33 212.147C1214.66 212.88 1214 213.614 1213.36 214.347C1213.18 214.347 1215.29 211.677 1215.33 212.147ZM1192.53 239.94C1192 240.107 1191.45 240.196 1190.89 240.204C1190.56 240.351 1192.48 239.39 1192.53 239.94ZM1220.77 203.997C1220.56 204.092 1220.63 203.792 1220.71 203.872C1220.8 203.953 1220.77 203.931 1220.77 203.997ZM1215.87 209.99C1215.66 210.151 1215.47 210.379 1215.2 210.247C1214.5 209.616 1216.07 209.315 1215.87 209.99ZM1190.77 240.233C1190.67 240.175 1190.18 240.16 1190.39 240.365L1190.77 240.233ZM1227.5 194.799L1227.25 194.938C1227.25 194.821 1227.54 194.571 1227.5 194.799ZM1227.11 195.224C1226.8 195.356 1226.89 194.916 1227.17 195.041C1227.14 195.061 1227.12 195.09 1227.11 195.123C1227.1 195.156 1227.1 195.191 1227.11 195.224ZM1174.73 258.792C1174.68 258.74 1174.69 258.674 1174.6 258.674C1174.6 258.799 1174.6 258.85 1174.73 258.792ZM1174.1 258.153C1174.07 258.153 1173.91 257.867 1173.83 257.97C1173.88 258.029 1174.03 258.234 1174.1 258.153ZM1189.15 239.691C1188.51 240.094 1187.45 240.175 1186.86 240.615C1185.8 240.321 1188.24 239.933 1188.67 239.705C1188.75 238.972 1189.21 239.625 1189.15 239.705V239.691ZM1188.95 239.691L1188.91 239.61C1188.66 239.713 1188.71 239.793 1188.95 239.691ZM1173.75 257.816C1173.69 257.816 1173.02 257.816 1173.23 257.574C1173.41 257.515 1173.74 257.574 1173.75 257.816ZM1186.76 240.629C1186.67 240.629 1186.59 240.703 1186.52 240.732C1186.36 240.593 1186.75 240.615 1186.76 240.629ZM1186.38 240.761C1186.11 240.497 1185.77 240.725 1185.2 241.026C1184.81 241.026 1183.27 241.796 1184.47 241.502C1185.09 241.221 1185.73 240.976 1186.38 240.769L1186.38 240.761ZM1237.8 177.084C1237.6 176.152 1235.6 175.969 1236.34 174.531C1236.29 173.856 1237.9 174.575 1237.72 173.226C1237.41 172.426 1236.86 171.741 1236.15 171.26C1235.42 170.59 1234.93 169.698 1234.75 168.722C1233.44 165.494 1229.12 168.201 1228.93 170.864C1227.64 172.441 1233.24 175.573 1234.12 175.918C1235.32 175.837 1236.76 178.052 1237.78 177.106L1237.8 177.084ZM1267.24 140.54C1267.2 140.598 1267.16 140.655 1267.11 140.708C1267.05 140.525 1267.29 140.371 1267.24 140.54ZM1195.46 228.137C1194.77 228.438 1195 228.137 1195.56 227.829C1195.62 227.888 1195.45 228.013 1195.46 228.137ZM1266.62 141.295C1266.37 141.493 1266.41 141.655 1266.14 141.405C1266.74 140.672 1266.37 141.075 1266.62 141.295ZM1266.23 141.765C1266.23 141.493 1266.04 142.051 1265.83 141.933C1265.74 141.875 1265.55 142.278 1266.23 141.765ZM1268.17 139.344C1267.98 139.52 1267.54 140.254 1267.38 140.121C1267 140.356 1269.1 138.207 1268.17 139.344ZM1265.8 142.278C1265.65 142.43 1265.51 142.592 1265.38 142.762C1264.9 142.902 1265.44 142.029 1265.8 142.278ZM1266.8 140.811C1266.81 140.774 1266.81 140.738 1266.8 140.701C1266.72 140.62 1266.55 140.928 1266.8 140.811ZM1194.73 228.622C1194.45 228.827 1194.63 228.732 1194.44 228.563C1194.65 228.336 1194.57 228.468 1194.73 228.622ZM1226.6 189.664C1226.39 189.906 1226.13 190.214 1225.77 190.185C1225.22 189.693 1226.55 189.011 1226.6 189.664ZM1183.88 241.634L1183.45 241.774C1183.4 241.649 1183.84 241.495 1183.88 241.634ZM1223.95 192.488C1223.56 192.664 1223.12 193.493 1222.72 193.86C1222.43 193.779 1224.12 191.799 1223.95 192.488ZM1221.7 195.18C1221.46 195.18 1221.59 194.872 1221.7 194.989C1221.7 195.033 1221.7 195.077 1221.7 195.18ZM1220.2 197.014C1219.99 197.241 1219.99 197.241 1219.92 197.278C1219.78 197.146 1220.09 196.985 1220.2 197.014ZM1221.17 195.811C1221.06 195.901 1220.97 195.999 1220.88 196.104C1220.84 196.273 1220.88 195.561 1221.17 195.811ZM1178.22 248.082C1178.15 248.082 1178.09 248.082 1178.02 248.031C1178.14 247.869 1178.13 247.994 1178.22 248.082ZM1193.48 229.443C1193.29 229.588 1193.06 229.663 1192.83 229.656C1192.89 229.583 1193.39 229.362 1193.48 229.443ZM1193.63 229.018C1193.52 229.11 1193.39 229.164 1193.25 229.172C1193.32 229.091 1193.53 228.922 1193.63 229.018ZM1182.9 242.023C1182.79 242.089 1182.59 242.133 1182.73 241.957C1182.79 241.973 1182.85 241.996 1182.9 242.023ZM1192.91 229.34C1192.84 229.34 1192.59 229.436 1192.69 229.531L1192.91 229.34ZM1192.67 229.634C1192.36 229.766 1192.41 229.634 1192.63 229.495C1192.63 229.539 1192.63 229.539 1192.67 229.634ZM1262.05 143.224C1261.84 143.394 1261.65 143.583 1261.48 143.789C1261.28 143.342 1262.21 142.997 1262.05 143.224ZM1261.36 143.958C1261.3 143.892 1261.36 143.796 1261.27 143.804C1261.06 144.061 1261.09 144.178 1261.36 143.958ZM1261.11 144.266C1260.51 144.781 1259.98 145.376 1259.53 146.034C1258.97 146.452 1261.17 144.237 1261.11 144.266ZM1259.11 146.466C1258.61 146.943 1256.73 149.342 1256.5 149.129C1256.62 148.623 1258.89 146.268 1259.11 146.466ZM1259.22 146.173C1259.18 146.196 1259.14 146.224 1259.11 146.254C1258.93 146.092 1259.3 146.07 1259.22 146.173ZM1257.35 148.308C1257.23 148.198 1257.02 148.498 1257.11 148.491C1257.2 148.484 1257.27 148.366 1257.35 148.308ZM1175.49 248.097C1175.38 248.133 1175.26 248.097 1175.38 247.987C1175.48 247.987 1175.44 248.045 1175.49 248.097ZM1222.69 189.561C1222.39 189.825 1222.21 189.781 1222.16 189.312C1222.58 188.41 1222.98 187.786 1222.69 189.561ZM1224.98 186.216C1224.34 186.62 1224.94 184.874 1225.18 185.439C1225.07 185.686 1225.01 185.948 1224.98 186.216ZM1176.44 245.243C1176.36 245.315 1176.26 245.361 1176.16 245.375C1175.47 244.752 1176.7 244.458 1176.44 245.243ZM1213.79 197.329C1213.05 197.857 1211.38 200.263 1210.57 199.097C1210.66 198.364 1213.74 196.508 1213.79 197.329ZM1173.36 246.014C1173.3 246.014 1173.14 246.014 1173.22 245.904C1173.31 245.793 1173.28 245.904 1173.36 246.014ZM1181.66 234.394C1181.37 234.526 1181.53 234.299 1181.66 234.292C1181.65 234.326 1181.65 234.36 1181.66 234.394ZM1191.19 221.301C1191.13 221.367 1191.02 221.242 1190.95 221.206C1191.08 221.052 1191.24 221.103 1191.19 221.301ZM1210.56 196.654C1210.56 196.559 1210.56 196.559 1210.48 196.515C1210.4 196.471 1210.29 196.823 1210.56 196.654ZM1235.85 165.766C1236.15 165.406 1235.54 165.531 1235.76 165.854C1235.8 165.828 1235.82 165.798 1235.85 165.766ZM1235.25 166.499C1235.12 166.613 1235 166.738 1234.89 166.873C1234.89 166.771 1235.08 166.345 1235.25 166.499ZM1234.72 167.057C1234.64 167.123 1234.19 167.621 1234.06 167.511C1234.42 166.374 1234.6 167.071 1234.72 167.057ZM1235.49 165.971C1235.41 166.011 1235.34 166.06 1235.27 166.118C1235.23 166.081 1235.47 165.678 1235.49 165.971ZM1186.5 225.68C1186.27 225.908 1186.03 226.142 1185.81 226.414C1185.81 226.26 1186.27 225.504 1186.5 225.68ZM1185.81 226.516C1185.77 226.516 1185.2 226.274 1185.58 226.604C1185.28 226.971 1185.06 227.301 1185.81 226.516ZM1235.24 166.206C1235.13 166.279 1235.13 166.279 1234.97 166.477C1234.75 166.477 1235.05 166.044 1235.24 166.206ZM1184.86 226.861C1184.67 227.035 1184.49 227.221 1184.32 227.419C1184.32 227.419 1184.62 226.648 1184.86 226.861ZM1183.59 228.402L1183.09 228.93C1182.9 228.754 1183.42 228.453 1183.59 228.402ZM1182.06 230.265C1182.01 230.309 1181.76 230.426 1181.92 230.228C1181.97 230.237 1182.01 230.249 1182.06 230.265ZM1183.96 227.925C1183.64 228.13 1184.01 227.734 1184.06 227.668C1184.06 227.719 1184.06 227.719 1183.96 227.925ZM1182.14 229.876L1182.04 229.993C1181.97 229.81 1182.51 229.194 1182.14 229.876ZM1176.82 235.612C1176.62 235.7 1176.52 235.553 1176.69 235.509C1176.87 235.465 1176.77 235.509 1176.82 235.612ZM1185.11 225.46C1183.6 226.509 1183.33 225.005 1184.92 224.367C1185.74 223.949 1184.65 224.763 1185.77 224.573C1185.4 225.013 1185.25 224.873 1185.11 225.46ZM1191.18 217.89C1191.02 218.059 1190.68 218.477 1190.45 218.396C1189.12 217.45 1191.49 214.934 1192.04 214.208C1192.28 215.051 1191.13 216.937 1191.21 217.875L1191.18 217.89ZM1204.45 201.019C1204.38 201.057 1204.31 201.089 1204.23 201.114C1203.67 200.953 1204.54 200.241 1204.45 201.019ZM1209.58 193.83C1209.3 193.931 1209 193.969 1208.7 193.941C1208.41 193.913 1208.12 193.82 1207.86 193.669C1206.98 192.121 1208.9 191.828 1209.61 191.292C1210.61 190.082 1211.72 190.669 1210.12 191.909C1209.75 192.437 1209.79 193.581 1209.58 193.83ZM1179.78 229.605C1179.43 229.92 1179.5 228.446 1180.35 228.688C1180.14 228.983 1179.95 229.289 1179.78 229.605ZM1240.58 155.364C1240.54 155.093 1240.4 155.181 1240.54 155.416C1240.56 155.401 1240.57 155.383 1240.58 155.364ZM1180.8 228.174C1180.9 227.822 1181.71 226.949 1181.49 226.766C1180.76 227.499 1179.72 229.399 1180.8 228.174ZM1173.58 236.874L1173.4 236.962C1172.82 236.228 1173.51 235.95 1173.58 236.874ZM1257.16 134.664L1257.08 134.759C1256.94 134.561 1257.02 134.356 1257.16 134.664ZM1183.49 223.956C1183.37 222.453 1182.52 223.736 1182.67 224.25C1182.93 224.492 1183.28 224.125 1183.49 223.956ZM1250.44 141.889C1250.11 142.271 1249.24 143.195 1249.79 142.117C1250.42 141.178 1252.85 138.046 1252.72 138.486C1251.91 139.557 1251.25 140.818 1250.42 141.889H1250.44ZM1251.26 140.62C1250.84 140.232 1250.4 141.515 1251 140.796C1251.08 140.732 1251.17 140.673 1251.26 140.62ZM1251.61 140.011C1251.59 139.979 1251.57 139.945 1251.55 139.909C1251.43 139.909 1251.2 140.195 1251.61 140.011ZM1253.15 137.877C1252.97 138.09 1253.15 137.774 1253.15 137.686C1253.12 137.748 1253.12 137.815 1253.15 137.877ZM1253.42 137.481C1253.58 137.18 1254.79 135.537 1253.77 136.791C1253.77 136.791 1252.89 138.134 1253.42 137.481ZM1254.93 135.427C1254.24 135.992 1255.52 134.319 1255.62 134.202C1255.9 134.334 1254.88 135.236 1254.93 135.427ZM1254.63 135.786C1254.63 135.786 1254.63 135.786 1254.47 135.904C1254.37 135.808 1254.54 135.706 1254.63 135.786ZM1256.34 133.512C1257.03 132.595 1257.65 131.63 1258.2 130.622C1257.59 131.333 1257.03 132.08 1256.51 132.86C1256.09 133.49 1255.41 134.481 1256.34 133.512ZM1258.98 129.845L1258.61 130.219C1258.53 130.065 1258.76 129.647 1258.98 129.845ZM1213.82 184.515C1212.14 186.312 1208.74 189.246 1206.29 187.023C1205.55 183.788 1208.76 180.128 1211.87 181.977C1212.7 181.834 1213.5 181.53 1214.21 181.082C1214.01 178.632 1217.8 179.827 1215.22 181.551C1213.5 181.83 1214.15 183.488 1213.82 184.485V184.515ZM1236.45 153.406C1236.45 153.332 1236.45 153.332 1236.37 153.274C1236.28 153.398 1236.31 153.582 1236.45 153.406ZM1218.41 173.123L1218.24 173.248C1217.96 173.16 1218.31 172.661 1218.41 173.123ZM1196.3 199.889C1196.12 200.058 1196.05 200.183 1195.8 200.073C1195.46 199.596 1196.37 198.862 1196.3 199.889ZM1249.61 134.451C1249.29 134.598 1249.32 133.93 1249.61 134.173C1249.63 134.264 1249.63 134.36 1249.61 134.451ZM1206.17 186.803C1206.17 186.561 1205.69 186.649 1206 186.928L1206.17 186.803ZM1245.31 134.246C1243.46 135.852 1242.49 132.449 1244.75 132.698C1245.78 133.182 1245.2 134.165 1245.31 134.246ZM1205.36 182.791C1206.39 179.857 1201.76 181.177 1202.91 182.982C1203.77 183.781 1204.61 183.539 1205.36 182.791ZM1194.84 195.063C1194.77 195.113 1194.71 195.17 1194.66 195.231C1194.66 195.129 1194.83 194.887 1194.84 195.063ZM1195.11 194.667C1195.2 194.542 1195.28 194.395 1195.36 194.241C1195.22 194.109 1194.62 195.268 1195.11 194.667ZM1181.79 208.728C1181.66 208.828 1181.51 208.891 1181.35 208.912C1180.88 208.472 1183.55 204.166 1184.04 203.498C1184.7 203.454 1183.3 205.171 1183.14 205.354C1183.08 206.418 1182.15 207.804 1181.79 208.728ZM1198.27 187.669C1197.9 188.006 1197.32 188.366 1196.85 187.925C1196.12 186.194 1199 186.15 1198.27 187.669ZM1170.83 216.071C1170.83 216.108 1170.51 215.227 1170.83 215.513C1170.79 215.698 1170.79 215.887 1170.83 216.071ZM1167.23 218.792C1167.14 218.792 1167.05 218.646 1167.08 218.587C1167.15 218.635 1167.21 218.708 1167.23 218.792ZM1224.29 148.858C1222.67 150.171 1216.43 146.826 1215.69 149.327C1215.88 149.804 1214.29 150.794 1213.92 151.044C1213.5 150.78 1209.84 150.406 1209.43 150.897C1209.43 151.858 1210 151.836 1210.76 152.056C1211.37 153.12 1209.87 152.613 1209.46 152.54C1207.44 152.914 1206.53 156.208 1209.01 156.545C1210.67 157.125 1209.82 158.401 1208.37 157.279C1206.75 156.751 1206.76 155.672 1205.08 157.125C1203.66 157.755 1205.93 158.511 1206.04 159.127C1205.39 160.748 1202.06 157.733 1201.45 157.125C1200.25 156.707 1199.62 158.592 1198.96 157.653C1198.35 157.095 1197.67 155.408 1198.03 157.396C1197.88 158.76 1195.16 155.584 1194.76 155.195C1193.47 155.005 1192.98 153.516 1191.99 152.613C1190.65 150.538 1193.04 149.621 1192.67 147.934C1193.23 145.484 1191.75 145.432 1190.03 143.87C1189.87 143.312 1189.35 142.615 1189.4 142.021C1189.62 141.368 1188.66 138.09 1188.2 136.989C1188.12 135.911 1187.33 135.412 1186.84 134.591C1186.84 132.882 1189.54 133.608 1189.6 134.378C1192.36 136.887 1193.36 135.706 1195.64 133.432C1197.03 132.838 1197.83 131.737 1199.01 131.15C1199.74 130.952 1203.36 129.053 1202.97 130.696C1202.47 131.326 1201.66 130.901 1201.51 131.891C1203.24 133.784 1205.51 130.952 1207.2 130.351C1208.41 129.449 1209.35 131.723 1206.8 131.642C1206.46 131.781 1204.2 133.058 1204.84 133.527C1205.68 133.468 1206.65 133.028 1207.52 133.19C1209.16 132.735 1209.97 134.444 1211.79 133.923C1213.43 132.581 1216.03 134.459 1213.08 135.302C1211.48 134.444 1211.35 138.654 1210.96 139.439C1210.41 142.909 1213.89 140.723 1215.19 140.906C1217.03 142.197 1213.24 143.026 1212.65 143.393C1210.41 146.122 1216.79 146.738 1217.68 147.391C1218.07 147.489 1218.48 147.489 1218.87 147.391C1222.65 147.985 1220.87 144.127 1220.71 142.102C1221.59 140.481 1221.93 144.97 1221.99 145.234C1224.32 147.354 1222.84 141.2 1223.05 140.62C1223.05 140.62 1222.72 137.928 1222.73 137.686C1224.06 136.777 1223.39 141.207 1223.62 141.787C1223.42 143.525 1225.08 147.354 1224.3 148.784L1224.29 148.858ZM1182.1 199.86C1182.03 199.919 1181.98 199.985 1181.88 199.985C1181.45 199.603 1182.2 199.024 1182.1 199.86ZM1172.43 210.863C1172.39 210.882 1172.35 210.892 1172.31 210.891C1172.28 210.891 1172.24 210.881 1172.2 210.862C1172.17 210.843 1172.14 210.815 1172.12 210.782C1172.1 210.749 1172.09 210.711 1172.09 210.672C1172.24 210.481 1172.37 210.738 1172.43 210.863ZM1196.48 180.055C1196.33 180.157 1196.33 180.157 1196.26 180.165C1195.87 179.637 1196.57 179.717 1196.48 180.055ZM1175.95 204.599C1175.83 204.745 1175.69 203.96 1175.95 204.217C1175.95 204.357 1175.95 204.481 1175.95 204.599ZM1175.95 203.953C1175.84 202.486 1176.16 204.371 1175.72 203.308C1175.83 203.117 1175.48 204.1 1175.95 203.953ZM1175.99 203.124C1175.92 203.124 1175.84 203.08 1175.73 203.124C1175.73 202.706 1175.91 202.647 1175.99 203.124ZM1175.94 202.625C1175.92 202.637 1175.9 202.654 1175.88 202.677C1175.57 202.398 1176 198.547 1175.95 197.872C1176.51 197.52 1176.05 199.992 1176.09 200.249C1176.52 200.865 1175.89 202.002 1175.94 202.625ZM1176.13 201.628C1176.07 201.268 1175.87 201.444 1175.97 201.701C1176.03 201.701 1176.03 201.701 1176.13 201.628ZM1176.07 201.298C1176.05 201.231 1176.03 201.162 1176.03 201.092C1175.83 200.85 1175.79 201.466 1176.07 201.298ZM1178.42 198.364C1178.28 198.422 1178.25 198.364 1178.34 198.224C1178.38 198.224 1178.47 198.312 1178.42 198.364ZM1190.28 182.519C1188.77 183.898 1187.68 181.214 1189.93 181.228C1190.27 181.58 1190.74 181.962 1190.28 182.519ZM1164.73 213.665L1164.67 213.731C1164.47 213.489 1164.57 213.364 1164.73 213.665ZM1164.47 212.931C1164.03 213.129 1163.61 211.318 1163.09 210.856C1163.01 209.829 1164.41 212.785 1164.47 212.931ZM1191.51 179.857C1191.39 179.959 1191.23 180.091 1191.08 180.055C1190.5 179.527 1191.67 179.233 1191.51 179.857ZM1170.75 203.762C1170.63 203.88 1170.51 204.026 1170.31 204.019C1169.33 203.132 1170.15 200.858 1170.28 199.809C1171.01 198.569 1170.71 193.72 1171.74 193.376C1172.37 193.684 1171.44 197.344 1171.35 198.166C1171.48 199.845 1171.42 202.251 1170.78 203.762H1170.75ZM1190.89 177.744C1190.75 177.832 1190.64 177.832 1190.75 177.634C1190.8 177.634 1190.8 177.634 1190.89 177.744ZM1161.18 213.203C1160.98 213.32 1160.97 213.313 1160.78 213.071C1160.65 212.227 1160.99 213.027 1161.18 213.203ZM1186.11 182.116C1185.64 182.461 1185.08 182.776 1184.83 181.984C1184.82 181.888 1184.83 181.792 1184.87 181.702C1184.9 181.612 1184.95 181.531 1185.02 181.464C1185.09 181.396 1185.17 181.345 1185.26 181.313C1185.36 181.282 1185.45 181.271 1185.55 181.28C1185.64 181.29 1185.73 181.321 1185.82 181.371C1185.9 181.42 1185.97 181.487 1186.02 181.567C1186.08 181.647 1186.11 181.737 1186.12 181.832C1186.14 181.927 1186.13 182.024 1186.11 182.116ZM1160.73 212.513C1160.73 212.447 1160.73 212.447 1160.73 212.418C1160.6 212.308 1160.59 212.557 1160.73 212.513ZM1163.47 207.987C1163.37 208.043 1163.27 208.085 1163.17 208.112C1162.6 207.599 1163.39 206.939 1163.47 207.987ZM1179.87 183.143C1179.13 183.876 1178.36 184.419 1177.45 183.59C1176.17 181.045 1180.66 180.656 1179.87 183.143ZM1128.75 234.739C1127.93 235.627 1126.61 236.94 1125.46 236.734C1124.93 236.977 1124.4 237.19 1123.85 237.373C1122.45 237.981 1122.8 238.047 1123.68 238.84C1123.73 239.368 1121.32 238.26 1120.89 237.864C1119.06 237.057 1118.43 236.17 1117.52 234.637C1117.91 234.343 1116.49 234.072 1116.84 233.654C1116.27 233.382 1116.76 233.25 1116.88 233.103C1116.07 232.531 1116.51 230.565 1116.07 230.169C1115.82 226.868 1116.18 225.299 1118.9 222.211C1120.22 221.35 1121.4 220.291 1122.41 219.071C1123.07 218.338 1123.28 217.685 1123.74 218.103C1123.58 218.567 1123.39 219.019 1123.15 219.453C1123.4 220.289 1124.39 218.785 1123.73 219.599C1123.81 220.597 1123.63 220.157 1124.62 220.428C1124.92 220.357 1125.23 220.35 1125.53 220.409C1125.83 220.467 1126.12 220.588 1126.37 220.766C1126.9 220.223 1126.64 221.147 1127.48 220.766C1126.79 220.391 1128.5 221 1127.99 220.531C1128.49 219.665 1128.17 220.993 1128.25 221.191C1128.03 221.455 1128.39 223.054 1129.36 222.834C1129.44 222.915 1130.24 225.966 1130.82 225.284C1131.12 225.423 1131.12 225.284 1130.94 225.864C1129.81 227.228 1132.45 225.739 1131.54 226.846C1130.98 227.089 1131.15 227.257 1131.62 227.272C1131.7 227.228 1134.34 226.252 1133.35 226.942C1132.96 227.675 1133.73 226.575 1133.76 227.125C1131.94 229.663 1130.53 232.032 1128.77 234.776L1128.75 234.739ZM1127.91 233.228C1127.74 232.847 1127.44 232.641 1128.02 232.429C1128.76 232.48 1128.89 231.314 1128.24 231.072C1128.43 230.83 1128.89 231.292 1129.09 230.874C1128.68 230.499 1129.4 227.785 1129 227.727C1128.55 228.27 1129.36 226.773 1128.61 227.096C1128.73 227.199 1128.1 227.184 1128.49 226.868C1128.49 226.868 1126.76 225.834 1127.03 225.467C1127.8 226.018 1127.08 225.196 1127.96 225.798C1128.85 225.064 1127.52 224.668 1126.94 225.387C1126.42 224.653 1125.68 224.653 1124.74 224.807C1124.74 224.807 1125.35 223.656 1124.8 224.323C1124.06 223.67 1120.19 227.639 1119.28 228.878C1119.18 229.003 1118.89 230.631 1119.75 229.612C1119.75 229.568 1121.53 228.086 1121.35 228.57C1121 229.207 1120.59 229.813 1120.13 230.382C1119.4 230.749 1119.97 230.91 1119.05 230.47C1118.96 230.474 1118.87 230.5 1118.8 230.546C1118.72 230.591 1118.66 230.654 1118.61 230.73C1118.56 230.806 1118.53 230.892 1118.53 230.981C1118.52 231.07 1118.54 231.159 1118.57 231.24C1118.74 231.189 1119.12 230.778 1119.23 230.881C1118.15 232.201 1119.33 232.465 1119.18 232.825C1119.45 233.456 1119.7 233.558 1120.16 233.059C1120.37 233.25 1119.98 233.47 1119.94 233.668C1121.08 234.594 1122.52 235.065 1123.99 234.99C1125.45 234.916 1126.84 234.301 1127.88 233.265L1127.91 233.228ZM1123.01 237.189C1122.86 237.05 1122.91 236.089 1122.85 237.043C1122.88 237.101 1122.94 237.27 1123.01 237.189ZM1144.41 209.851C1144.13 209.851 1144.21 209.557 1144.41 209.741C1144.42 209.777 1144.42 209.814 1144.41 209.851ZM1128.9 228.453C1128.8 228.218 1128.79 228.416 1128.8 228.519C1128.84 228.46 1128.84 228.46 1128.9 228.453ZM1127.97 226.018C1127.97 225.871 1127.91 225.812 1127.78 225.966C1127.9 226.025 1127.9 226.025 1127.97 226.018ZM1158.97 186.165C1158.87 186.165 1158.72 186.048 1158.97 186.04C1158.96 186.082 1158.96 186.124 1158.97 186.165ZM1120.18 232.781C1120.13 232.157 1119.8 232.781 1119.81 232.986L1120.18 232.781ZM1119.34 231.952C1119.34 231.776 1119.59 231.328 1119.18 231.952C1119.23 231.996 1119.28 231.952 1119.34 231.952ZM1121.92 228.284C1122.17 227.448 1121.57 228.181 1121.61 228.284C1121.64 228.387 1121.8 228.416 1121.92 228.284ZM1124.53 224.903C1124.34 224.734 1123.73 224.947 1124.17 225.064C1124.35 224.837 1124.39 224.961 1124.53 224.903ZM1121.05 228.871C1121.05 228.871 1121.01 228.812 1120.99 228.776C1120.85 228.776 1120.88 228.952 1121.05 228.871ZM1208.35 121.945C1208.21 122.003 1208.22 121.893 1208.28 121.813C1208.32 121.845 1208.35 121.893 1208.35 121.945ZM1123.76 225.02C1123.76 224.587 1123.39 225.02 1123.65 225.079C1123.68 225.063 1123.72 225.044 1123.76 225.02ZM1122.63 225.203C1122.63 225.143 1122.61 225.085 1122.58 225.035C1122.51 225.115 1122.52 225.262 1122.63 225.203ZM1122.85 224.661C1122.66 224.477 1122.48 224.58 1122.74 224.719C1122.79 224.708 1122.82 224.688 1122.85 224.661ZM1121.97 223.692C1121.06 222.871 1120.67 224.484 1121.29 224.213C1121.12 223.802 1121.77 223.773 1121.97 223.692ZM1123.25 220.267C1123.14 220.157 1123.16 220.135 1123.01 220.318C1123.05 220.33 1123.09 220.331 1123.14 220.322C1123.18 220.314 1123.22 220.294 1123.25 220.267ZM1128.75 211.706C1128.48 211.86 1127.41 211.772 1127.49 211.384C1127.85 211.384 1128.55 211.252 1128.75 211.706ZM1209.15 100.254C1208.82 100.542 1208.41 100.702 1207.98 100.702C1207.55 100.702 1207.13 100.542 1206.81 100.254C1204.3 99.9168 1209.78 97.6135 1209.18 100.254H1209.15Z" fill="#FFAF20"/>
</g>
<defs>
<clipPath id="clip0_169_23926">
<rect width="99" height="79" fill="white" transform="translate(1182 124)"/>
</clipPath>
</defs>
</svg>
