<svg width="438" height="132" viewBox="0 0 438 132" fill="none" xmlns="http://www.w3.org/2000/svg">
<g clip-path="url(#clip0_60_25807)">
<path d="M112.045 34.8915L109.619 29.892L108.841 28.2844L108.731 28.0649C106.82 24.134 104.91 20.2079 103 16.277C100.994 12.1505 99.0498 7.99538 96.9913 3.90228C96.7035 3.32265 96.3423 2.78235 95.9167 2.29462C95.1668 1.43038 94.1912 0.791216 93.0989 0.448435C91.8609 -0.0615884 90.4825 -0.119025 89.2064 0.286237C88.0773 0.467911 87.0161 0.94371 86.1298 1.66567C85.2435 2.38762 84.5635 3.33022 84.1582 4.39842L79.8597 7.53741C76.7569 9.49751 73.7701 11.6351 70.9142 13.9394L70.8569 13.9824C69.8348 14.7027 68.9131 15.4135 68.0725 16.1243C67.4182 16.6014 66.7639 17.1071 66.1 17.5889C62.3556 20.3033 60.536 24.01 59.8912 28.4132C59.5829 30.3323 59.455 32.276 59.5091 34.2189C59.1461 37.7443 58.4393 40.5827 53.9976 42.5005H53.9737C51.4664 43.3529 48.8047 43.6555 46.1697 43.3878C40.6439 42.9107 35.118 42.2715 29.5635 42.6579C25.0549 42.9728 20.7422 43.841 16.8689 45.8112C16.7208 45.8828 16.5727 45.9543 16.4295 46.0307C16.2862 46.107 16.1381 46.1833 15.9996 46.2644C15.8611 46.3455 15.7656 46.3884 15.651 46.46C15.3453 46.6365 15.0444 46.8226 14.7435 47.0134C14.5525 47.1374 14.3662 47.2614 14.18 47.395C13.9937 47.5286 13.8457 47.6288 13.7024 47.7528C12.7658 48.4316 11.8829 49.1812 11.0612 49.9949C10.2977 50.7508 9.59358 51.5642 8.95498 52.4279C4.75687 57.7041 2.33544 64.2445 1.14621 68.2374C1.03159 68.4091 0.912187 68.5681 0.788011 68.7144C0.429835 69.144 0.187796 69.658 0.0849592 70.2075C-0.0178774 70.757 0.0219263 71.3236 0.20057 71.8534L9.31797 109.135C9.35766 109.379 9.41675 109.62 9.49468 109.855L10.4499 113.81C10.8256 115.499 11.2364 117.178 11.6821 118.848V118.934L12.857 123.737V123.771C13.3346 126.018 13.9412 128.25 14.5382 130.645L14.8629 131.967C15.2676 130.682 15.8273 129.452 16.5297 128.303C16.6109 128.165 16.6921 128.021 16.7829 127.874C17.1315 127.296 17.5375 126.671 18.0103 126.008C18.1011 125.875 18.1966 125.741 18.3017 125.608C19.183 124.408 20.1401 123.265 21.1673 122.187C22.4135 120.881 23.7406 119.654 25.1409 118.514C28.4576 115.843 32.0619 113.551 35.8869 111.678C40.8349 109.211 46.3942 108.205 51.9869 107.775L52.5075 107.737C67.3131 106.692 82.5964 109.459 89.1156 99.8611C98.6676 85.8596 124.31 74.3436 124.31 74.3436L134.134 92.6528L137 91.174L112.045 34.8915Z" fill="#0C1829"/>
<path d="M54.3224 104.455C53.4866 103.835 53.391 104.636 53.2478 104.932C52.844 105.823 52.5969 106.777 52.5171 107.752L51.9965 107.79C46.3799 108.219 40.8445 109.221 35.8965 111.692C32.0714 113.565 28.4672 115.858 25.1505 118.528C23.7502 119.668 22.423 120.895 21.1768 122.201C20.1497 123.279 19.1925 124.422 18.3112 125.622C18.2061 125.755 18.1106 125.889 18.0199 126.023C17.5948 125.431 16.9453 125.231 16.1095 125.216C15.9214 125.876 15.9914 126.582 16.3053 127.191C16.4343 127.411 16.5537 127.764 16.7829 127.888C16.6922 128.036 16.611 128.179 16.5298 128.317C15.8273 129.466 15.2676 130.697 14.8629 131.981L14.5382 130.66C13.9412 128.274 13.3155 126.032 12.857 123.785V123.752C12.7329 123.151 12.623 122.55 12.5275 121.944C13.0051 121.433 13.6403 121.667 14.2086 121.567C14.3264 121.56 14.4416 121.529 14.5475 121.477C14.6534 121.425 14.748 121.353 14.8257 121.264C14.9035 121.175 14.9628 121.072 15.0003 120.96C15.0379 120.848 15.0529 120.73 15.0444 120.613C15.0444 120.241 14.9489 119.873 14.5382 119.778C14.1275 119.683 13.7836 120.012 13.5209 120.346C13.1579 120.823 13.0433 121.452 12.4749 121.743C12.1979 120.818 11.9337 119.891 11.6821 118.962V118.876C11.2396 117.207 10.8288 115.527 10.4499 113.839C10.2015 112.738 9.96594 111.633 9.74306 110.523C11.8779 110.204 12.0403 110.046 12.1311 108.085C12.1788 106.945 12.3078 105.858 13.4732 105.09C10.7986 103.511 13.2439 100.796 11.9257 98.8879C10.8367 99.3363 10.2159 100.023 10.383 101.321C10.6027 103.048 9.79557 104.746 10.2588 106.54C10.3974 107.079 10.3018 108.181 9.23677 108.4C6.89653 98.9261 4.55471 89.4503 2.21127 79.9728C1.54741 77.2727 0.931316 74.5583 0.195809 71.863C0.0171655 71.3332 -0.0226381 70.7666 0.0801984 70.2171C0.183035 69.6676 0.425074 69.1535 0.78325 68.724C0.907426 68.5618 1.02683 68.4028 1.14145 68.2469C1.74323 67.3501 2.23041 66.3387 2.77965 65.4228C4.07395 66.1622 3.99273 67.9989 5.37299 68.6667H5.41124C5.60622 68.7338 5.77956 68.852 5.91315 69.009C6.04674 69.1659 6.13565 69.3558 6.17061 69.5588C6.64821 71.6483 7.55088 73.6519 7.48879 75.8511C7.37138 75.972 7.3018 76.1313 7.29296 76.2996C7.29296 76.414 7.29299 76.5333 7.26434 76.6526C7.25745 76.7408 7.23309 76.8267 7.19268 76.9054C7.19471 76.9197 7.19471 76.9341 7.19268 76.9483C6.49539 77.4254 5.12943 76.2948 4.96704 77.6019C4.75212 79.3288 3.15696 80.9413 4.45126 82.8495C5.40646 84.2091 5.77895 84.2281 6.67684 82.8495C6.844 82.5871 7.03508 82.4249 7.32165 82.6157L7.36939 82.6491C8.40101 86.7422 9.44215 90.8258 10.4356 95.0858C11.0039 94.5754 11.5627 94.1031 12.0785 94.5086C12.1547 94.5691 12.2222 94.6397 12.2792 94.7185C12.3513 94.8164 12.4151 94.9201 12.4701 95.0286C13.6307 98.8211 14.3376 102.728 15.4695 106.692C16.2432 105.91 16.6635 105.008 17.2462 104.226C17.6139 103.72 17.9482 102.933 18.8031 103.487L18.8891 103.544C18.8913 103.571 18.8913 103.598 18.8891 103.625C20.3219 108.105 21.344 112.689 22.6001 117.46C23.8801 116.028 24.9308 114.759 26.1057 113.61C26.6836 113.042 26.4639 112.264 26.631 111.587C26.631 111.544 26.6645 111.496 26.6836 111.453C26.7169 111.367 26.7551 111.283 26.7982 111.201C26.9782 110.832 27.2723 110.532 27.6367 110.343C28.0012 110.155 28.4167 110.088 28.8218 110.154C29.2268 110.22 29.5999 110.414 29.8858 110.709C30.1716 111.003 30.355 111.381 30.4089 111.787C30.4805 112.388 30.7766 112.598 31.3641 112.603C32.1283 112.603 32.028 112.126 31.9802 111.625C31.9038 110.905 32.0375 110.304 32.9354 110.194C33.499 110.122 34.33 110.442 34.5162 109.717C34.7789 108.701 35.5097 107.809 35.3186 106.659C35.0751 105.204 34.9413 103.735 34.8124 102.265C32.176 102.213 31.4692 101.311 32.262 98.845C32.7396 97.4138 32.1903 96.0113 32.262 94.5945C32.2954 93.9552 31.6745 93.7835 31.1109 93.6928C30.5474 93.6022 29.9026 93.7739 29.3964 93.335C29.4071 93.3071 29.4199 93.28 29.4346 93.2539C29.4398 93.2292 29.4513 93.2062 29.468 93.1872C30.0889 91.8562 31.2877 91.57 32.6154 91.4936H32.7396H32.7682C33.4798 91.9707 33.6088 92.734 33.8094 93.4591C34.8888 97.3566 36.0971 101.216 37.1908 105.104C37.7687 107.165 37.8977 107.222 39.8749 106.588C43.2096 105.483 46.6413 104.695 50.1243 104.236C52.0347 104.002 52.1493 103.759 51.5571 101.965C50.855 99.8134 50.1243 97.6714 49.427 95.5295C49.2168 94.8664 48.8969 94.1794 49.2837 93.4925C49.3169 93.4331 49.3536 93.3758 49.3935 93.3207C49.81 93.315 50.2253 93.2751 50.6353 93.2015C51.323 93.0202 52.0681 92.6147 52.6174 93.2969C52.9199 93.6748 53.104 94.1336 53.1464 94.6157C53.1889 95.0977 53.0879 95.5816 52.8562 96.0065C52.006 97.6094 52.8561 99.3459 52.2926 100.954C52.1063 101.512 52.4741 102.337 53.6107 102.003C54.7474 101.669 55.4495 102.246 55.5212 103.549C55.4734 104.579 55.3253 105.204 54.3224 104.455Z" fill="#0C1829"/>
<path d="M13.0624 106.01C12.3555 106.053 12.5848 107.866 12.5275 108.911C12.4701 110.704 11.5197 111.244 9.71438 110.528C9.61534 110.32 9.52925 110.107 9.45651 109.889C9.37858 109.654 9.3195 109.413 9.2798 109.168C9.23263 108.92 9.20704 108.668 9.20337 108.415C9.51859 107.294 10.5693 106.158 9.17474 105.047C10.3162 104.059 10.0392 102.552 9.87202 101.502C9.59979 99.8134 10.4499 99.4031 11.4815 98.5349C12.3269 97.8193 12.3364 98.3679 12.4654 98.7686C12.6164 99.3967 12.7249 100.034 12.7902 100.677C13.0481 102.051 11.5866 103.787 13.7167 104.822C14.008 104.946 14.5191 105.92 13.0624 106.01Z" fill="#0C1829"/>
<path d="M12.4893 121.753C12.7042 121.209 12.8857 120.646 13.134 120.117C13.2541 119.774 13.4961 119.487 13.814 119.311C14.132 119.135 14.5036 119.082 14.8582 119.163C15.7369 119.382 15.5794 120.346 15.6176 120.951C15.6701 121.801 14.863 122.073 14.1179 122.106C13.5894 122.095 13.0625 122.044 12.5418 121.953L12.4415 121.863L12.4893 121.753Z" fill="#0C1829"/>
<path d="M104.131 56.0487C104.13 57.6992 104.261 59.347 104.523 60.9767C104.597 61.2678 104.597 61.5728 104.523 61.864C103.797 63.8962 104.189 64.9791 106.629 64.4878C106.768 64.5135 106.898 64.5738 107.008 64.663C107.117 64.7522 107.202 64.8675 107.255 64.9982C107.255 66.5534 107.866 68.1229 107.255 69.6685C107.112 70.0168 106.481 70.47 106.997 70.6942C108.282 71.2523 108.521 72.4736 109.194 73.4515C109.738 74.2434 110.598 75.0067 110.082 75.8702C109.567 76.7337 108.568 75.8988 107.785 75.8416C105.951 72.4497 104.442 68.91 102.856 65.4037C102.078 63.672 101.099 62.0262 100.468 60.2277C100.057 59.0351 99.4032 58.849 98.2952 59.4167C94.5659 61.2679 91.011 63.4504 87.6733 65.938C86.9712 66.4771 86.3504 67.1402 85.4572 67.4025C84.6883 67.2833 84.4161 66.6679 84.1582 66.062C82.321 61.7336 80.4965 57.4004 78.6848 53.0624C78.4085 52.5274 78.3356 51.9105 78.4795 51.3259C79.578 49.475 81.3451 48.3348 83.0358 47.1279C85.4011 45.415 87.858 43.832 90.3956 42.386C90.7757 42.2737 91.123 42.0716 91.4082 41.7967C91.6934 41.5218 91.908 41.1823 92.0338 40.8069L93.2231 41.2315C93.2231 43.6168 94.6558 45.4534 95.5298 47.4904C96.743 50.3098 98.1471 53.0528 99.3507 55.877C99.8283 56.9885 100.354 57.3368 101.495 56.7071C102.278 56.2586 103.086 55.5669 104.131 56.0487Z" fill="#0C1829"/>
<path d="M85.5623 67.2308C89.5168 63.4144 94.3788 61.0291 99.1214 58.434C99.599 58.1668 99.9572 58.1763 100.239 58.7965C102.766 64.3685 105.321 69.9309 107.881 75.4933C107.919 75.5792 107.828 75.7175 107.804 75.832C102.909 78.0217 98.0993 80.3592 93.7914 83.5984C92.435 84.7481 92.1436 84.7815 91.5228 83.2406C90.2953 80.1732 88.7383 77.2393 87.7593 74.0765C87.2817 72.5308 86.3264 71.2142 85.7772 69.7305C85.5336 69.0674 85.1277 68.4473 85.2996 67.6935C85.3521 67.5219 85.4418 67.3639 85.5623 67.2308Z" fill="#FFAF20"/>
<path d="M49.3267 93.3827C50.3201 96.5456 51.2371 99.737 52.3403 102.866C52.8179 104.245 52.4407 104.512 51.1082 104.655C46.9054 105.076 42.7749 106.038 38.8195 107.518C37.6541 107.961 37.3055 107.661 36.9903 106.564C35.5575 101.536 34.0673 96.5456 32.5963 91.5127C32.6488 91.4411 32.7061 91.3696 32.7587 91.2932C34.6593 90.2653 36.7423 89.6171 38.8911 89.385C39.4393 89.7579 40.0812 89.9698 40.7439 89.9968C41.4066 90.0238 42.0635 89.8647 42.6403 89.5377C45.162 88.2544 47.3638 89.0845 48.4384 91.651C48.5243 91.8657 48.5005 92.1281 48.7249 92.276L49.3267 93.3827Z" fill="#FFAF20"/>
<path d="M75.2318 86.1888C76.8938 90.4155 78.5463 94.6517 80.237 98.8688C80.514 99.5558 80.2704 99.8229 79.6925 100.076C75.7714 101.801 71.6127 102.926 67.3561 103.415C66.4009 103.525 66.2863 102.991 66.0523 102.351C64.715 98.624 63.365 94.9014 62.0022 91.1835C61.4287 90.6616 61.0639 89.9498 60.9754 89.1799C60.813 88.3594 61.0661 87.6629 61.9306 87.62C65.8947 87.4292 69.5387 86.0219 73.2449 84.834C74.3721 84.6289 74.2049 86.2747 75.2318 86.1888Z" fill="#FFAF20"/>
<path d="M90.601 42.6627C86.4841 45.2674 82.3623 47.8625 78.7469 51.1637C78.682 51.22 78.6012 51.2549 78.5157 51.2634C78.4301 51.272 78.3441 51.2538 78.2693 51.2114C76.8337 49.0638 75.8207 46.6628 75.2843 44.1367C75.3057 43.9614 75.3921 43.8004 75.5265 43.6856C75.6609 43.5708 75.8335 43.5105 76.0102 43.5166C75.8096 43.0395 76.8986 44.5136 76.292 43.3353C76.2698 43.2828 76.2611 43.2257 76.2665 43.169C76.272 43.1123 76.2914 43.0578 76.3231 43.0105C76.3549 42.9632 76.3979 42.9245 76.4483 42.8979C76.4987 42.8714 76.555 42.8577 76.612 42.8582C77.1708 42.8344 77.4383 43.2351 77.7869 43.8124C77.4669 43.0872 76.741 42.8201 76.7553 42.1188C76.7553 40.8928 76.1774 40.5207 75.0407 40.8594C74.7303 40.9548 74.267 40.8594 74.2718 40.6257C74.2718 39.433 72.5811 38.5696 73.5601 37.2529C74.0377 36.6375 73.2832 36.2988 73.4026 35.8217C76.5308 32.3727 80.3182 29.7966 84.3587 27.5497C85.6005 27.6451 85.7915 28.2748 84.8984 28.9808C84.3587 29.4102 84.8984 29.4579 84.8984 29.6964C84.9816 29.8294 85.052 29.9699 85.1086 30.1162C85.2939 30.7037 85.607 31.2429 86.0255 31.6953C86.114 31.8283 86.1907 31.9687 86.2548 32.1151C86.3194 32.2725 86.416 32.4148 86.5385 32.533C86.661 32.6513 86.8067 32.7429 86.9664 32.802C88.6762 33.5128 88.7909 33.9994 87.7354 35.526C87.5969 35.7216 87.4201 36.0698 87.5156 36.1509C87.7258 36.3322 87.9359 35.8885 88.2273 35.9935C88.3876 36.0347 88.5312 36.1247 88.638 36.2511C88.9389 36.9953 89.7078 37.5248 89.6601 38.436C89.6601 38.5552 89.4786 38.7461 89.5455 38.7222C90.3144 38.4885 90.7251 38.6745 90.5627 39.5332C90.515 39.8004 90.5628 39.8528 90.7586 40.0484C92.0768 41.3412 92.0577 41.3555 90.601 42.6627Z" fill="#FFAF20"/>
<path d="M73.6892 85.1106C69.9495 86.5847 66.1622 87.8537 62.0978 88.0302C61.2476 88.0684 61.1091 88.4309 61.3957 89.1751C61.6488 89.8239 61.8064 90.5156 62.0023 91.1883C61.4769 91.2551 61.1235 90.9116 60.7462 90.6349C59.9629 90.0672 59.2274 89.5281 58.3582 90.5872C57.957 91.0642 57.2406 90.8305 56.6627 90.8448C56.2233 90.8448 55.7075 90.7398 55.7075 90.2723C55.674 89.6522 56.2758 89.7523 56.6627 89.7953C57.828 89.9432 58.4155 89.3182 58.7641 88.3403C60.0823 87.806 60.259 86.9616 59.7479 85.6592C58.5253 82.5584 57.4985 79.3813 56.3713 76.247C56.0609 75.3931 55.4161 74.5344 56.0322 73.5469C56.9874 72.984 58.1098 73.2321 59.1462 73.0699C62.3548 72.5923 65.4715 71.627 68.3878 70.2076C68.5603 70.1556 68.7413 70.1382 68.9205 70.1563C69.0998 70.1745 69.2737 70.2279 69.4321 70.3135C69.5906 70.3991 69.7305 70.5151 69.8439 70.655C69.9573 70.7948 70.0419 70.9557 70.0928 71.1283C71.7262 75.1307 73.2927 79.1618 74.7399 83.2406C74.993 84.1041 74.8163 84.9151 73.6892 85.1106Z" fill="#0C1829"/>
<path d="M26.4925 61.2295C27.8386 60.5778 29.2982 60.1922 30.7909 60.0941C32.0375 60.3135 33.4178 60.118 34.287 61.6398C34.7121 60.7906 33.6231 60.5282 34.1628 60.0369C34.5592 59.6791 35.0464 59.8079 35.5192 59.8174C36.3359 59.8174 37.1669 60.6856 37.9884 59.7363C38.103 59.6027 38.5329 59.8508 38.7526 60.0703C40.2533 63.9344 41.5573 67.8719 42.6594 71.8677C43.094 73.4372 42.8409 73.6424 40.4385 74.1385C36.484 74.1766 32.7539 75.2834 29.0477 76.4999C28.687 76.5218 28.3303 76.4141 28.0421 76.1963C27.7539 75.9784 27.5533 75.6648 27.4764 75.312C26.2108 71.3096 24.9881 67.2928 24.0042 63.2092C23.9674 62.9744 23.9938 62.734 24.0807 62.5128C25.2699 61.6588 25.886 62.2408 26.3922 63.1997C26.7218 62.7083 25.9051 61.8974 26.4925 61.2295Z" fill="#FFAF20"/>
<path d="M104.131 56.0487C103.082 56.454 102.062 56.9322 101.08 57.4799C100.062 58.1335 99.728 57.7423 99.3124 56.8311C97.2301 52.2228 95.1127 47.6336 92.9603 43.0634C92.6117 42.324 92.4827 41.7467 93.223 41.222C95.783 39.9817 98.3572 38.7747 100.865 37.4867C101.82 37.0096 102.24 37.1337 102.723 38.1546C104.9 42.7676 107.159 47.3473 109.457 51.9079C109.977 52.9479 109.82 53.3963 108.74 53.8161C107.179 54.4888 105.674 55.2998 104.131 56.0487Z" fill="#FFAF20"/>
<path d="M55.8221 73.6662C57.4364 78.16 59.1653 82.6204 60.5981 87.1572C61.2428 89.1465 59.213 87.744 58.6877 88.345C54.9815 88.1256 51.2753 88.2878 47.5691 88.345L47.3112 88.2353C46.356 87.1667 46.2271 85.7499 45.8163 84.4714C44.8611 81.4787 43.8661 78.4939 42.8313 75.5171C42.3537 73.3609 42.7024 72.7121 44.7417 72.8552C48.3381 73.1033 51.9535 72.9268 55.5307 73.4563L55.8221 73.6662Z" fill="#FFAF20"/>
<path d="M24.2717 62.279C25.2269 66.7919 26.803 71.1283 27.9827 75.5792C28.1307 76.1326 28.4603 76.3568 29 76.2137C29.3916 76.9674 29.8692 77.7259 28.9045 78.4272C27.9492 77.3157 26.9941 77.3443 25.7571 78.0646C23.8132 79.1809 21.836 80.2114 20.2169 81.7999C19.956 82.1241 19.5827 82.3386 19.1709 82.401C18.2157 82.1482 18.2157 81.2943 17.996 80.5739C17.1411 77.4254 16.2242 74.2912 15.4313 71.1235C15.3814 70.5973 15.1441 70.1065 14.7627 69.7401C13.8111 70.8806 13.0308 72.1533 12.4463 73.5183C12.1598 74.1433 12.0976 74.9495 11.2809 75.2071C10.6505 74.9304 10.5168 74.3246 10.3592 73.7759C9.93414 72.2303 9.57592 70.6656 9.1413 69.1199C8.99324 68.6047 8.8691 68.0657 9.35148 67.6315C9.61416 68.1801 10.4786 67.2308 10.6028 68.1086C11.3478 67.808 12.5514 68.1515 12.5132 66.7585C12.5132 66.52 12.432 66.1813 12.5562 66.062C14.0749 64.545 12.7042 63.2665 12.3795 61.8258C12.0833 60.5235 12.0833 59.2021 10.9132 58.2861C10.6648 58.4197 10.789 58.6487 10.8272 58.8538C10.9132 59.3786 11.7251 59.8079 11.066 60.4138C10.8511 60.6189 10.4834 60.7525 10.2876 60.4472C9.93413 59.9081 9.43267 59.0542 9.77177 58.6725C10.7772 57.5571 11.3689 56.1308 11.4481 54.6319C11.4481 54.5508 11.749 54.4936 11.9257 54.422C12.9096 58.1382 13.9364 61.8449 14.9155 65.5611C15.3358 67.1497 15.4695 67.2213 16.6731 66.1241C18.3412 64.6952 20.1795 63.4774 22.1464 62.4985C22.7911 62.1598 23.4741 61.6445 24.2717 62.279Z" fill="#0C1829"/>
<path d="M68.4164 70.5845C64.5775 72.7378 60.2228 73.8034 55.8221 73.6662L55.8698 73.7139C54.6758 72.5928 54.5182 70.9804 54.0263 69.5636C52.966 66.52 51.5141 63.5957 51.0269 60.366L51.1846 60.137C55.6788 60.2801 59.9295 59.4596 63.7264 56.8979C64.3425 56.7214 64.6338 57.1507 64.7962 57.58C66.2624 61.4966 68.0821 65.2892 69.0946 69.3727C69.1328 69.9261 68.6695 70.1933 68.4164 70.5845Z" fill="#FFAF20"/>
<path d="M88.4757 36.0937C87.6781 36.0507 87.9455 36.7806 87.573 37.2148C87.3294 36.2607 86.3838 35.3495 88.0506 34.8295C88.12 34.8039 88.1826 34.7626 88.2333 34.7087C88.2839 34.6549 88.3214 34.5901 88.3427 34.5193C88.364 34.4485 88.3685 34.3738 88.356 34.3009C88.3434 34.2281 88.3141 34.1592 88.2703 34.0996C87.9694 33.6798 87.6255 33.0406 87.1002 33.1455C85.7486 33.4651 85.9683 32.5874 86.1975 31.6571C86.4506 31.3661 86.3934 31.2087 86.3074 31.2135C86.1116 31.2135 86.1784 31.4472 86.1259 31.576C86.0864 31.6776 86.0244 31.769 85.9444 31.8432C86.0686 31.6571 86.336 31.6762 86.1975 31.6619C85.2136 31.4711 84.7647 30.9177 84.8698 30.0542L83.7426 28.7757C84.1581 28.4132 84.9223 29.2098 85.0991 28.3559C85.2041 27.8502 84.7504 27.6642 84.3635 27.4925C85.1325 26.982 85.4047 26.4906 84.908 25.4793C83.074 21.744 81.4263 17.918 79.6066 14.1732C79.0622 13.0521 79.0526 12.4176 80.2705 11.7879C82.4484 10.6812 84.5689 9.45516 86.6656 8.21482C87.5157 7.73777 87.9647 7.73777 88.4279 8.72527C90.2762 12.6514 92.158 16.568 94.1591 20.4321C94.7323 21.5579 94.4027 21.9443 93.4141 22.4357C91.069 23.5949 88.7718 24.8687 86.4698 26.1233C85.9922 26.3809 85.3188 26.505 85.7534 27.4066C87.893 31.8479 89.9754 36.3131 92.0816 40.764C92.6929 42.2238 91.4703 42.2763 90.6488 42.6293C91.2792 41.7133 91.7664 41.16 90.5103 39.9721C89.6219 39.1277 88.4279 37.7729 88.5234 36.0603C88.3419 36.0603 88.5473 36.3465 88.4709 36.1175C88.4709 36.0651 88.5043 36.0412 88.6094 36.046C88.8482 36.046 88.6094 36.2988 88.7384 36.1032C88.767 36.0269 88.6715 35.9649 88.4757 36.0937Z" fill="#FFAF20"/>
<path d="M38.337 59.4167C36.9663 55.2997 35.6051 51.178 34.2153 47.0658C33.9479 46.2739 34.2631 46.1117 34.9556 46.1928C38.6284 46.5745 42.3011 46.9657 45.9739 47.3282C46.7619 47.4093 46.8527 47.9961 47.0485 48.5542C48.4208 52.4184 49.7995 56.2793 51.1845 60.137L51.2131 60.0798C50.9921 60.2809 50.7311 60.4332 50.4472 60.5269C50.1634 60.6206 49.8629 60.6536 49.5654 60.6236C45.8896 60.4784 42.2234 60.1488 38.5806 59.6361L38.337 59.4167Z" fill="#FFAF20"/>
<path d="M24.2717 62.279C21.4061 62.9469 19.1566 64.6643 16.9453 66.4818C16.3531 66.9589 15.8182 67.5027 15.1113 68.142C13.9698 63.8485 12.8714 59.7459 11.7681 55.6337C11.6855 55.2245 11.7427 54.7996 11.9305 54.4267C13.9388 52.3309 16.2784 50.579 18.8557 49.2412C19.8109 48.7641 20.1978 48.7641 20.513 49.9425C21.4205 53.3629 22.581 56.7166 23.4502 60.1418C23.8418 61.6731 24.286 62.3506 25.8382 61.3774C26.0533 61.29 26.2803 61.2353 26.5117 61.2152C27.0943 62.2218 26.4782 63.2092 26.4543 64.2874C26.2872 62.9373 25.4753 62.3935 24.2717 62.279Z" fill="#FFAF20"/>
<path d="M68.4164 70.5845C68.5262 70.179 68.6409 69.7687 68.7555 69.3584C71.1913 69.3298 72.3948 67.6792 73.4264 65.8044C73.7034 65.3035 73.6079 64.5927 74.2622 64.3017C74.4713 64.3304 74.6681 64.4172 74.8302 64.5521C74.9923 64.6871 75.1132 64.8648 75.1792 65.065C76.6837 68.8814 78.4842 72.5738 79.597 76.5142C79.597 77.5303 80.3708 78.4701 79.8836 79.5244C79.5254 81.5375 77.9732 82.5823 76.4066 83.441C75.1649 84.1279 74.4533 84.7529 75.2318 86.1697C73.4551 87.6009 74.396 85.1774 73.6891 85.0916C74.3434 84.6956 74.6969 84.2949 74.3387 83.4028C72.7148 79.3574 71.1578 75.2929 69.6247 71.2094C69.3716 70.5463 69.1137 70.2314 68.4164 70.5845Z" fill="#FFAF20"/>
<path d="M75.5326 44.0604C76.3525 46.4994 77.3502 48.8751 78.5176 51.1685C78.5836 51.3353 78.6047 51.5164 78.5787 51.6939C78.5528 51.8714 78.4806 52.0389 78.3696 52.1798C76.9367 54.0022 76.0102 56.1107 74.7875 58.0476C73.8323 57.9856 73.5554 57.1936 73.2736 56.5067C71.7835 52.8525 70.2551 49.2078 68.9417 45.482C68.8748 45.2531 68.5692 45.5584 68.7793 45.4439C68.8223 45.4439 68.8557 45.4439 68.8892 45.5345C69.1387 46.0352 69.261 46.5896 69.2452 47.1487C69.2293 47.7079 69.0759 48.2545 68.7985 48.7403C68.1489 49.0218 67.7525 48.6497 67.528 48.1392C66.4391 45.6633 65.3836 43.1731 64.543 40.597C64.5019 40.4547 64.4957 40.3046 64.5248 40.1593C64.5539 40.014 64.6174 39.8778 64.7102 39.7622C65.928 40.5875 65.8994 42.1188 66.654 43.2256C67.2272 44.07 67.7334 43.9603 68.4259 43.5786C68.7576 41.3898 69.69 39.3357 71.1196 37.6441C71.4444 37.2625 71.7166 36.69 72.3948 36.8904C72.6172 36.979 72.8104 37.1276 72.953 37.3197C73.0955 37.5118 73.1817 37.7398 73.2019 37.978C73.5683 39.2262 74.1034 40.4187 74.7923 41.5225C75.2059 42.3108 75.4576 43.1737 75.5326 44.0604Z" fill="#0C1829"/>
<path d="M75.5326 44.0604L72.3088 36.9333C70.8649 38.4489 69.7882 40.2751 69.1615 42.2715C68.9991 42.7486 68.9991 43.3258 68.4259 43.5786C67.1221 40.2727 66.038 36.857 64.4571 33.6894C62.9335 30.6315 63.5019 27.9647 65.0445 25.2789C65.4457 24.5681 65.7705 23.7953 66.5776 23.1847C68.3018 27.2778 70.0355 31.2946 71.6736 35.3686C72.1512 36.4944 72.5429 36.7997 73.3978 35.7836C73.9279 36.0555 75.418 35.7168 74.1285 37.0955C73.4073 37.8636 73.5029 37.9637 74.6061 38.5267C74.8927 38.6841 74.8402 38.9083 74.7255 39.0991C73.8372 40.5589 74.2479 40.7211 75.6807 40.12C76.2968 39.8576 77.147 40.3442 77.1135 40.8165C76.9941 42.1379 77.9206 43.1159 78.2072 44.6329C77.529 43.9793 77.486 43.2018 76.6407 43.0586C76.3828 43.5357 77.3141 43.8839 76.8604 44.3896C76.378 44.4087 76.1917 43.1827 75.5326 44.0604Z" fill="#FFAF20"/>
<path d="M74.1953 64.4448C73.9852 67.3405 71.8074 68.6619 69.6916 70.0167C68.9179 70.4938 69.214 69.4061 68.7364 69.3584C67.4421 65.2701 65.7371 61.3392 64.1944 57.3415C64.1228 57.1602 63.8744 57.0457 63.7168 56.8978L63.7741 56.4208C66.4009 55.2043 67.8242 52.986 68.7937 50.3909C68.971 50.417 69.1367 50.4947 69.2701 50.6144C69.4034 50.734 69.4985 50.8902 69.5435 51.0635C71.2056 55.1614 73.0491 59.1734 74.3864 63.4144C74.5774 63.7865 73.7942 64.0011 74.1953 64.4448Z" fill="#0C1829"/>
<path d="M68.8462 50.5149C68.6456 52.9622 67.2749 54.6796 65.3549 56.0344C64.906 56.354 64.4523 56.8978 63.7885 56.4017C62.4655 52.8477 61.1951 49.2746 59.7909 45.7587C59.3133 44.609 59.4614 44.0032 60.5169 43.2876C62.3939 42.0043 62.9048 40.9977 63.7454 38.1116L64.7006 39.7622C65.8039 42.5863 66.9215 45.4057 68.0057 48.2394C68.1585 48.6449 68.3161 48.8357 68.746 48.6783C69.1806 49.2698 68.8462 49.9043 68.8462 50.5149Z" fill="#FFAF20"/>
<path d="M113.812 49.3939L98.4575 19.9741C95.9835 15.2036 93.5048 10.4856 91.069 5.71509C90.8541 5.29051 90.0422 4.76099 90.8254 4.21715C91.4081 3.82597 92.1149 4.11697 92.6403 4.54631C92.9495 4.82535 93.1982 5.16466 93.371 5.54335C100.417 19.9089 107.457 34.2777 114.491 48.6497C114.528 48.7611 114.554 48.8762 114.567 48.9931C114.758 49.2555 114.777 49.5608 114.495 49.7135C114.214 49.8662 113.994 49.6133 113.812 49.3939Z" fill="#FFAF20"/>
<path d="M85.5194 67.7365C87.7482 73.2162 89.977 78.6896 92.2058 84.1566C92.9413 84.2902 93.2183 83.6271 93.7389 83.608C93.7962 83.9133 94.1114 84.2329 93.5382 84.4524C92.5887 84.8091 91.5584 84.895 90.5628 84.7004C89.9897 84.5955 89.5121 84.376 89.7031 83.4839C89.9706 82.2484 89.2255 80.9937 89.7031 79.6675C89.9419 78.9663 88.9963 79.076 88.5139 79.0903C86.4077 79.138 86.699 79.1476 86.9044 77.1821C87.0907 75.4266 88.1175 73.2894 85.9874 71.7771C84.354 73.8427 84.077 76.3043 83.8859 78.7993C83.843 79.3908 84.311 79.4242 84.6071 79.6675C85.6769 80.5644 86.5987 81.4708 86.8614 83.0069C87.0811 84.2902 86.8614 85.1775 85.8537 85.9312C85.6437 85.915 85.4443 85.833 85.2839 85.6967C85.1235 85.5605 85.0103 85.3771 84.9605 85.1727C83.671 81.7952 82.0376 78.556 80.9726 75.0926C81.1063 74.3961 80.6621 73.8093 80.5857 73.151C81.0633 70.823 82.6108 69.2201 84.3254 67.7556C84.6644 67.498 85.1134 67.1306 85.5194 67.7365Z" fill="#0C1829"/>
<path d="M9.35148 67.6172C9.92461 70.1122 10.3067 72.6644 11.4099 75.0115C11.4791 75.0767 11.5316 75.1575 11.5632 75.2471C11.5948 75.3367 11.6044 75.4326 11.5914 75.5267C10.9937 77.0108 10.3162 78.4616 9.5616 79.8726C9.31802 80.2781 9.03144 80.7265 8.46309 80.6073C7.98549 80.5071 7.89954 80.0539 7.76103 79.6532C7.38764 78.5305 7.20364 77.3536 7.21656 76.1707C6.78103 73.634 6.16659 71.1312 5.37781 68.681L7.89956 62.6082C8.46313 64.545 8.90732 66.0811 9.35148 67.6172Z" fill="#FFAF20"/>
<path d="M81.2973 74.7634C82.7015 78.5416 84.163 82.2913 85.8776 85.9455C85.9905 86.5217 86.1767 87.0812 86.4315 87.6104C87.807 89.7046 87.1193 91.7989 86.5128 94.3416L82.3385 83.9848C81.7845 82.6061 81.2162 81.237 80.686 79.8488C80.5093 79.3717 80.3421 79.1427 79.8836 79.5435C79.7499 78.4844 79.0001 77.5637 79.172 76.4331C79.6974 76.4903 79.8024 76.9101 79.9314 77.3061C79.7703 76.3623 79.9019 75.3918 80.3087 74.5249C80.7003 73.6662 81.1397 73.9047 81.2973 74.7634Z" fill="#FFAF20"/>
<path d="M48.7249 92.276C48.4895 92.1447 48.2907 91.9569 48.1464 91.7295C48.0021 91.5021 47.917 91.2422 47.8987 90.9736C47.8987 89.3755 46.3846 90.7542 45.8545 89.8239C45.4438 89.1084 44.3453 88.7983 43.3137 89.6426C42.7979 90.0672 42.1101 90.5967 41.2409 90.5061C40.4393 90.4446 39.6644 90.191 38.9818 89.7667C38.9818 89.5902 38.9818 89.366 39.1776 89.2896C41.9239 88.3355 44.7274 87.8585 47.6407 88.3355L47.593 88.3021L48.7249 92.276Z" fill="#FFAF20"/>
<path d="M113.812 49.3938C114.228 49.5703 114.557 49.5799 114.572 48.9931C116.092 51.6023 117.432 54.3118 118.584 57.103C118.684 57.5514 118.493 57.7184 118.058 57.6564C116.485 54.9861 115.067 52.2273 113.812 49.3938Z" fill="#FFAF20"/>
<path d="M38.3131 60.1036C37.3197 59.6266 37.2481 60.304 37.2768 61.1961C36.5508 59.8317 35.3664 60.304 34.3443 60.18C34.9556 60.5473 35.5335 60.8908 35.2183 61.7113C34.7025 61.2629 33.8428 62.3696 33.3987 61.2342C33.273 60.9602 33.047 60.7447 32.7672 60.6321C32.4874 60.5194 32.175 60.518 31.8942 60.6284C31.2972 60.8383 31.0154 60.5473 30.7862 60.0798C33.2602 59.3451 35.7962 59.3451 38.337 59.4024L38.2893 59.3594C38.3465 59.4023 38.3934 59.4575 38.4264 59.5209C38.4594 59.5843 38.4778 59.6544 38.4801 59.7258C38.4824 59.7973 38.4686 59.8683 38.4397 59.9337C38.4108 59.9991 38.3675 60.0572 38.3131 60.1036Z" fill="#FFAF20"/>
<path d="M118.039 57.6421C118.216 57.4608 118.388 57.2747 118.565 57.0887C120.098 59.6075 121.239 62.3362 122.51 64.96C122.648 65.4371 122.419 65.5707 121.984 65.5086L118.039 57.6421Z" fill="#FFAF20"/>
<path d="M124.32 68.5618L127.185 74.2864C127.314 74.668 127.138 74.7634 126.784 74.73L123.866 69.0293C124 68.8766 124.043 68.6047 124.32 68.5618Z" fill="#FFAF20"/>
<path d="M126.77 74.7491L127.171 74.3054L129.334 78.6275C129.42 79.0044 129.258 79.1046 128.909 79.033C128.199 77.6177 127.486 76.1898 126.77 74.7491Z" fill="#FFAF20"/>
<path d="M124.32 68.5618L123.842 69.0388L121.994 65.4991L122.519 64.9505L124.32 68.5618Z" fill="#FFAF20"/>
<path d="M19.3047 82.1863C21.5112 79.5816 24.4771 78.0789 27.5337 76.81C28.9665 76.2184 28.2167 78.1028 28.9665 78.4462C29.5158 78.8136 29.5969 79.429 29.7784 79.9823C30.8387 83.1977 31.6602 86.4845 32.6154 89.7285C32.7969 90.3344 33.093 90.9831 32.5725 91.5938L32.6106 91.5222L29.2674 93.3159C27.2951 94.8515 25.1865 96.204 22.9678 97.3565C22.7627 97.2308 22.5861 97.0635 22.4496 96.8655C22.3131 96.6675 22.2195 96.4431 22.1751 96.2068C21.2724 92.691 20.2646 89.2037 19.362 85.6831C19.2586 85.2764 19.2358 84.8534 19.2951 84.438C19.4432 83.8703 19.6438 83.3742 20.3745 83.67C20.0402 83.2024 18.6981 83.3599 19.3047 82.1863Z" fill="#FFAF20"/>
<path d="M23.2497 97.2277C24.9322 95.4888 26.9859 94.1516 29.2579 93.3159C29.7833 93.2873 30.3134 93.2205 30.8436 93.2396C32.2238 93.2968 32.8734 93.7548 32.754 95.4149C32.6298 96.9653 32.9259 98.4871 32.3146 100.066C31.837 101.278 33.0692 102.337 34.3491 101.803C35.3712 101.378 35.4333 101.984 35.3808 102.471C35.2293 104.007 35.3917 105.559 35.8584 107.031C36.1736 108.095 34.9031 108.505 35.0321 109.607C35.2231 111.172 33.9575 110.642 33.0596 110.628C31.6984 110.628 32.2716 111.492 32.5056 112.093C32.8781 113.047 32.8447 113.428 31.6221 113.147C30.7051 112.932 29.277 113.595 29.9695 111.611C30.1271 111.172 29.4919 110.728 28.9236 110.561C27.9159 110.261 27.3952 110.929 26.8747 111.592C26.7019 111.545 26.5447 111.453 26.4189 111.325C26.2931 111.198 26.2032 111.04 26.1583 110.867C25.0168 106.726 23.5983 102.652 23.0061 98.3774C23.3548 98.0578 23.0252 97.5807 23.2497 97.2277Z" fill="#0C1829"/>
<path d="M23.2449 98.0197C24.2478 102.595 25.4752 107.117 26.8651 111.592C27.2471 112.832 27.0036 113.738 25.9099 114.635C24.6394 115.666 23.6508 117.021 22.3422 118.476C21.3153 114.507 20.3028 110.757 19.3954 106.979C19.1375 105.901 18.507 104.899 18.6408 103.725C19.0181 103.305 18.6073 102.847 18.7029 102.413C19.3177 100.758 20.3491 99.2896 21.6974 98.1485C22.1129 97.7573 22.6479 97.0894 23.2449 98.0197Z" fill="#FFAF20"/>
<path d="M18.9322 102.561C19.0659 103.014 19.6581 103.587 18.6217 103.725C17.5614 103.606 17.6044 104.646 17.1889 105.156C16.5537 105.92 16.0379 106.783 15.1926 108.019C14.118 103.448 13.1388 99.3029 12.1645 95.1621C11.9326 94.3614 11.9696 93.5069 12.2696 92.7292C12.5876 91.846 12.9974 90.9986 13.4923 90.2008C13.8553 89.6045 14.2564 88.9509 15.1543 89.4041C16.4247 92.8723 17.0648 96.5217 18.1203 100.052C18.3591 100.892 18.3447 101.827 18.9322 102.561Z" fill="#FFAF20"/>
<path d="M14.9967 89.5139C14.1465 89.1179 14.1609 89.948 13.9364 90.3201C13.4206 91.1788 12.9812 92.0947 12.5036 92.9868C12.2123 93.8264 11.7776 94.0792 11.2093 93.2253C10.8056 92.4944 10.5402 91.6956 10.4261 90.8687C9.86249 88.4421 9.2798 86.0171 8.67802 83.5937C8.50608 82.9067 8.41057 82.1625 7.78969 81.6855C7.1497 80.1446 6.50016 78.6085 7.1306 76.8911C7.09239 76.643 6.74374 76.3663 7.19269 76.1564L8.43922 80.4499C9.87202 78.9758 9.96752 76.8339 11.4003 75.5267C12.1072 76.1135 12.1024 76.9961 12.3269 77.7784C13.3108 81.1893 13.9651 84.6909 15.1925 88.0255C15.5125 88.6027 15.7179 89.1322 14.9967 89.5139Z" fill="#0C1829"/>
<path d="M16.162 111.592C16.9453 114.804 17.727 118.013 18.5071 121.219C18.956 123.065 18.8892 123.203 17.0074 124.348C15.8707 119.73 14.7245 115.155 13.6642 110.571C13.4015 109.445 14.5144 109.011 15.1305 108.081C15.4934 109.178 15.7943 110.075 16.0857 110.972C16.1353 111.004 16.1773 111.047 16.2087 111.098C16.24 111.148 16.26 111.205 16.2673 111.264C16.2745 111.323 16.2689 111.383 16.2508 111.439C16.2326 111.496 16.2023 111.548 16.162 111.592Z" fill="#FFAF20"/>
<path d="M7.9091 81.633C9.07445 80.8983 8.78311 82.153 8.8643 82.463C9.77175 85.874 10.641 89.2896 11.4099 92.7339C11.6726 93.898 11.9926 93.6069 12.5275 92.9868C12.4033 93.7071 12.2744 94.4179 12.1502 95.1574C11.8541 94.9522 11.8158 93.8598 11.1568 94.8759C10.9036 95.2623 10.5836 95.601 10.1442 96.1449C9.11263 91.9134 8.124 87.9014 7.17358 83.8847C7.14123 83.474 7.17023 83.0608 7.25957 82.6586C7.24598 82.4411 7.30141 82.2249 7.41803 82.0408C7.53466 81.8566 7.70654 81.7139 7.9091 81.633Z" fill="#FFAF20"/>
<path d="M7.90914 81.633C7.88604 81.842 7.81554 82.043 7.70299 82.2208C7.59044 82.3985 7.4388 82.5482 7.25961 82.6587C7.12799 82.7237 7.0166 82.8234 6.9375 82.9469C6.85839 83.0705 6.81452 83.2133 6.81063 83.3599C6.58138 84.7291 5.72651 85.1727 4.80951 84.2234C3.80655 83.1739 2.77015 81.9574 3.67282 80.2591C3.91894 79.7856 4.10198 79.282 4.21729 78.7611C4.80474 76.2423 4.79514 76.2423 7.15449 76.9102C7.40284 78.5004 7.65442 80.0746 7.90914 81.633Z" fill="#0C1829"/>
<path d="M25.1505 118.538C23.7501 119.678 22.4229 120.904 21.1768 122.211C21.129 120.87 22.1941 118.996 23.3547 118.872C23.7992 118.784 24.2319 118.644 24.6442 118.457C24.7275 118.421 24.8195 118.409 24.9091 118.423C24.9988 118.438 25.0825 118.477 25.1505 118.538Z" fill="#0C1829"/>
<path d="M2.35458 68.9291C2.76054 69.8164 3.03276 70.3602 3.89722 70.6894C4.53721 70.9422 3.51038 72.1205 3.31934 72.9315C3.1283 73.7425 2.26857 73.442 1.66202 73.2416C0.959946 73.0126 0.482349 72.5499 0.830998 71.7723C1.22741 70.8898 1.74325 70.0549 2.35458 68.9291Z" fill="#0C1829"/>
<path d="M19.3954 119.072C19.0945 118.991 18.3495 119.363 18.4402 118.409C18.5501 117.378 18.7077 116.377 20.0593 116.305C21.239 116.243 21.4921 117.469 21.4587 117.965C21.3966 118.795 20.4844 119.215 19.3954 119.072Z" fill="#0C1829"/>
<path d="M27.7295 115.613C26.994 115.442 26.7743 115.456 26.9749 116.31C27.0895 116.863 26.1821 116.219 25.8144 116.567C25.5421 116.82 25.4275 116.567 25.3368 116.353C25.16 115.876 25.5756 115.675 25.8144 115.518C26.5429 115.039 27.3042 114.612 28.0925 114.239C28.2616 114.18 28.4463 114.181 28.6146 114.243C28.7829 114.304 28.9243 114.423 29.0143 114.578C29.105 114.712 29.0142 115.022 28.9378 115.213C28.9069 115.336 28.8454 115.449 28.7591 115.542C28.6727 115.635 28.5643 115.704 28.4438 115.744C28.3233 115.784 28.1947 115.793 28.0698 115.77C27.945 115.747 27.828 115.693 27.7295 115.613Z" fill="#0C1829"/>
<path d="M7.12103 95.9922C7.88316 96.5003 8.8109 96.6983 9.71438 96.5456C9.77169 97.3804 9.32756 97.8956 9.10309 98.6207C8.06192 98.0006 7.77535 96.8604 7.12103 95.9922Z" fill="#0C1829"/>
<path d="M16.162 111.592C16.1333 111.387 16.0999 111.177 16.0713 110.972C16.0713 110.127 16.6587 110.251 17.1841 110.375C17.7094 110.499 17.3035 110.814 17.2892 111.057C17.2653 111.945 16.6539 111.654 16.162 111.592Z" fill="#0C1829"/>
<path d="M20.064 111.258C19.8648 111.413 19.6558 111.554 19.4384 111.682C19.2617 111.763 19.0611 111.682 19.1327 111.472C19.2245 111.271 19.3784 111.104 19.5721 110.995C19.6532 110.967 19.8156 111.119 20.064 111.258Z" fill="#0C1829"/>
<path d="M18.5118 105.729C18.3674 105.846 18.2065 105.941 18.0342 106.01C17.9769 106.01 17.848 105.796 17.7524 105.681C17.8827 105.578 18.0217 105.487 18.168 105.409C18.3685 105.333 18.507 105.39 18.5118 105.729Z" fill="#0C1829"/>
<path d="M85.5193 67.7365C84.6549 67.3405 84.3969 68.1611 83.9957 68.557C82.573 69.856 81.5089 71.4989 80.9057 73.3275C80.1845 73.4325 79.9505 72.8505 79.7929 72.3734C78.0735 67.9368 76.0294 63.6338 74.5393 59.1114C74.5328 58.7019 74.6228 58.2967 74.8019 57.9283C75.1123 55.7339 76.4496 54.0833 77.7439 52.4136C78.0448 52.0224 78.6992 51.8173 78.5177 51.1494H78.7612C78.6915 51.345 78.6652 51.5534 78.6842 51.7602C78.7031 51.967 78.7669 52.1671 78.8711 52.3468C80.8484 57.0187 82.824 61.6906 84.7981 66.3626C84.9605 66.749 85.0608 67.1545 85.5671 67.2165L85.5193 67.7365Z" fill="#FFAF20"/>
<path d="M32.5485 91.5938C31.3959 87.5516 30.2465 83.5126 29.1003 79.4767C29.0257 79.137 28.973 78.7928 28.9426 78.4463C29.4202 77.7116 28.6179 76.9483 28.9904 76.2137C32.5839 74.5537 36.4937 73.688 40.4529 73.6758C40.9639 75.0306 42.5638 74.8875 43.3901 75.813C44.8038 79.9983 46.2191 84.1836 47.6359 88.369C44.7417 88.7935 41.771 88.7315 38.977 89.7667C36.718 89.9384 34.7264 91.0881 32.5485 91.5938Z" fill="#0C1829"/>
<path d="M43.3949 75.8129C42.2404 75.6727 41.1544 75.1909 40.2762 74.4295C39.7269 74.0049 40.4959 73.9524 40.4577 73.6757C40.8505 73.5515 41.2556 73.4699 41.6659 73.4324C42.4874 73.4324 42.6785 73.1701 42.411 72.3782C41.0212 68.2946 39.6743 64.1967 38.3132 60.1036V59.3737C42.6402 59.2831 46.91 60.2611 51.2371 60.0798L55.8937 73.7139C52.3929 73.628 48.8968 73.5183 45.3865 73.4611C42.9173 73.4229 42.9173 73.4515 43.3949 75.8129Z" fill="#0C1829"/>
<path d="M15.0349 88.3594C14.6671 88.3594 14.5143 88.0922 14.4427 87.806C13.4302 83.732 12.424 79.6548 11.4243 75.5744V75.0258C12.2565 72.5971 13.5147 70.3356 15.14 68.3471C16.3388 72.7598 17.4516 76.8386 18.5548 80.9174C18.6885 81.4231 18.6599 82.0051 19.319 82.1959C19.3572 82.3629 19.3524 82.6396 19.4479 82.6729C20.6849 83.1786 20.0115 83.8703 19.6581 84.5334C18.8701 84.2806 18.8319 83.6843 18.8414 83.1548C17.2653 84.543 16.6635 86.8042 15.0349 88.3594Z" fill="#FFAF20"/>
<path d="M12.518 69.2773C12.4225 69.3871 12.3317 69.5779 12.2075 69.6017C12.1661 69.6107 12.123 69.6078 12.0832 69.5934C12.0433 69.5789 12.0085 69.5535 11.9825 69.5201C11.9565 69.4867 11.9405 69.4466 11.9364 69.4045C11.9322 69.3624 11.9402 69.3199 11.9592 69.2821C12.0213 69.1438 12.198 69.0579 12.3269 68.9529L12.518 69.2773Z" fill="#1E1E1E"/>
<path d="M85.5336 30.1306C86.4888 30.6839 86.9187 31.1753 87.1336 31.9338C85.7104 32.2582 85.7533 31.2755 85.5336 30.1306Z" fill="#FFAF20"/>
<path d="M89.0679 36.6423C88.638 36.3274 88.2608 36.1366 88.3324 35.6882C88.3324 35.6118 88.6142 35.4926 88.7192 35.526C89.2159 35.6739 89.1538 36.0889 89.0679 36.6423Z" fill="#FFAF20"/>
<path d="M84.8077 30.1019C84.951 29.5056 85.056 29.1478 85.6578 29.1478C85.6053 29.6821 85.2137 29.8586 84.8077 30.1019Z" fill="#FFAF20"/>
<path d="M74.8019 58.7297C76.741 63.6386 78.4508 68.6381 80.9057 73.3323C80.9487 73.8332 81.9803 74.0622 81.2973 74.7634C81.0537 74.6442 80.7625 73.7521 80.5762 74.7253C80.366 75.8034 80.3422 76.9149 80.2084 78.3365L79.172 76.4283C77.6437 72.3782 76.3064 68.2517 74.1954 64.44C73.0157 64.2683 74.1954 63.8962 74.1238 63.6291C74.3483 62.4698 73.6987 61.3487 73.9661 60.1895C74.0999 59.6314 73.8372 58.8251 74.8019 58.7297Z" fill="#0C1829"/>
<path d="M74.8019 58.7297C74.0664 59.6838 74.5631 60.7763 74.4008 61.7924C74.3052 62.403 74.6873 63.09 74.1238 63.6338C72.3598 59.264 70.599 54.8911 68.8415 50.5149C67.9245 49.952 68.7794 49.2937 68.7412 48.6783V44.7521C69.5627 45.5965 69.7441 46.584 70.1071 47.4427C71.3775 50.4815 72.5525 53.5585 73.8229 56.6021C74.0235 57.0791 74.0044 57.8329 74.7781 57.9474C75.1984 58.2002 74.8497 58.4674 74.8019 58.7297Z" fill="#FFAF20"/>
<path d="M68.3353 45.6347C68.3066 45.8923 68.1824 46.0879 67.9102 46.0354C67.7765 46.0068 67.6714 45.8255 67.552 45.7158C67.6913 45.5668 67.8523 45.4398 68.0296 45.3389C68.2636 45.253 68.3114 45.4582 68.3353 45.6347Z" fill="#1E1E1E"/>
<path d="M15.0349 88.3594C15.9267 86.2557 17.1577 84.3122 18.679 82.6061C19.4288 83.15 19.1231 84.0373 19.6342 84.543C20.6849 88.8364 21.4968 93.1633 23.2401 97.2421C23.2831 97.5044 23.6365 97.7716 23.2401 98.034C22.7911 97.4854 22.4329 97.7764 22.0986 98.1628C20.8998 99.5319 19.6771 100.887 18.9273 102.575C18.4831 102.909 18.2873 102.838 18.1393 102.246C17.079 98.0101 15.8181 93.8216 14.9919 89.5281C15.1137 89.3593 15.1829 89.1582 15.1905 88.9503C15.1982 88.7423 15.144 88.5367 15.0349 88.3594Z" fill="#0C1829"/>
</g>
<g clip-path="url(#clip1_60_25807)">
<path d="M325.955 34.8915L328.381 29.892L329.159 28.2844L329.269 28.0649C331.18 24.134 333.09 20.2079 335 16.277C337.006 12.1505 338.95 7.99538 341.009 3.90228C341.297 3.32265 341.658 2.78235 342.083 2.29462C342.833 1.43038 343.809 0.791216 344.901 0.448435C346.139 -0.0615884 347.517 -0.119025 348.794 0.286237C349.923 0.467911 350.984 0.94371 351.87 1.66567C352.757 2.38762 353.437 3.33022 353.842 4.39842L358.14 7.53741C361.243 9.49751 364.23 11.6351 367.086 13.9394L367.143 13.9824C368.165 14.7027 369.087 15.4135 369.927 16.1243C370.582 16.6014 371.236 17.1071 371.9 17.5889C375.644 20.3033 377.464 24.01 378.109 28.4132C378.417 30.3323 378.545 32.276 378.491 34.2189C378.854 37.7443 379.561 40.5827 384.002 42.5005H384.026C386.534 43.3529 389.195 43.6555 391.83 43.3878C397.356 42.9107 402.882 42.2715 408.436 42.6579C412.945 42.9728 417.258 43.841 421.131 45.8112C421.279 45.8828 421.427 45.9543 421.571 46.0307C421.714 46.107 421.862 46.1833 422 46.2644C422.139 46.3455 422.234 46.3884 422.349 46.46C422.655 46.6365 422.956 46.8226 423.256 47.0134C423.448 47.1374 423.634 47.2614 423.82 47.395C424.006 47.5286 424.154 47.6288 424.298 47.7528C425.234 48.4316 426.117 49.1812 426.939 49.9949C427.702 50.7508 428.406 51.5642 429.045 52.4279C433.243 57.7041 435.665 64.2445 436.854 68.2374C436.968 68.4091 437.088 68.5681 437.212 68.7144C437.57 69.144 437.812 69.658 437.915 70.2075C438.018 70.757 437.978 71.3236 437.799 71.8534L428.682 109.135C428.642 109.379 428.583 109.62 428.505 109.855L427.55 113.81C427.174 115.499 426.764 117.178 426.318 118.848V118.934L425.143 123.737V123.771C424.665 126.018 424.059 128.25 423.462 130.645L423.137 131.967C422.732 130.682 422.173 129.452 421.47 128.303C421.389 128.165 421.308 128.021 421.217 127.874C420.868 127.296 420.462 126.671 419.99 126.008C419.899 125.875 419.803 125.741 419.698 125.608C418.817 124.408 417.86 123.265 416.833 122.187C415.587 120.881 414.259 119.654 412.859 118.514C409.542 115.843 405.938 113.551 402.113 111.678C397.165 109.211 391.606 108.205 386.013 107.775L385.493 107.737C370.687 106.692 355.404 109.459 348.884 99.8611C339.332 85.8596 313.69 74.3436 313.69 74.3436L303.866 92.6528L301 91.174L325.955 34.8915Z" fill="#0C1829"/>
<path d="M383.678 104.455C384.513 103.835 384.609 104.636 384.752 104.932C385.156 105.823 385.403 106.777 385.483 107.752L386.004 107.79C391.62 108.219 397.156 109.221 402.103 111.692C405.929 113.565 409.533 115.858 412.85 118.528C414.25 119.668 415.577 120.895 416.823 122.201C417.85 123.279 418.807 124.422 419.689 125.622C419.794 125.755 419.889 125.889 419.98 126.023C420.405 125.431 421.055 125.231 421.891 125.216C422.079 125.876 422.009 126.582 421.695 127.191C421.566 127.411 421.446 127.764 421.217 127.888C421.308 128.036 421.389 128.179 421.47 128.317C422.173 129.466 422.732 130.697 423.137 131.981L423.462 130.66C424.059 128.274 424.684 126.032 425.143 123.785V123.752C425.267 123.151 425.377 122.55 425.473 121.944C424.995 121.433 424.36 121.667 423.791 121.567C423.674 121.56 423.558 121.529 423.452 121.477C423.347 121.425 423.252 121.353 423.174 121.264C423.097 121.175 423.037 121.072 423 120.96C422.962 120.848 422.947 120.73 422.956 120.613C422.956 120.241 423.051 119.873 423.462 119.778C423.873 119.683 424.216 120.012 424.479 120.346C424.842 120.823 424.957 121.452 425.525 121.743C425.802 120.818 426.066 119.891 426.318 118.962V118.876C426.76 117.207 427.171 115.527 427.55 113.839C427.798 112.738 428.034 111.633 428.257 110.523C426.122 110.204 425.96 110.046 425.869 108.085C425.821 106.945 425.692 105.858 424.527 105.09C427.201 103.511 424.756 100.796 426.074 98.8879C427.163 99.3363 427.784 100.023 427.617 101.321C427.397 103.048 428.204 104.746 427.741 106.54C427.603 107.079 427.698 108.181 428.763 108.4C431.103 98.9261 433.445 89.4503 435.789 79.9728C436.453 77.2727 437.069 74.5583 437.804 71.863C437.983 71.3332 438.023 70.7666 437.92 70.2171C437.817 69.6676 437.575 69.1535 437.217 68.724C437.093 68.5618 436.973 68.4028 436.859 68.2469C436.257 67.3501 435.77 66.3387 435.22 65.4228C433.926 66.1622 434.007 67.9989 432.627 68.6667H432.589C432.394 68.7338 432.22 68.852 432.087 69.009C431.953 69.1659 431.864 69.3558 431.829 69.5588C431.352 71.6483 430.449 73.6519 430.511 75.8511C430.629 75.972 430.698 76.1313 430.707 76.2996C430.707 76.414 430.707 76.5333 430.736 76.6526C430.743 76.7408 430.767 76.8267 430.807 76.9054C430.805 76.9197 430.805 76.9341 430.807 76.9483C431.505 77.4254 432.871 76.2948 433.033 77.6019C433.248 79.3288 434.843 80.9413 433.549 82.8495C432.594 84.2091 432.221 84.2281 431.323 82.8495C431.156 82.5871 430.965 82.4249 430.678 82.6157L430.631 82.6491C429.599 86.7422 428.558 90.8258 427.564 95.0858C426.996 94.5754 426.437 94.1031 425.921 94.5086C425.845 94.5691 425.778 94.6397 425.721 94.7185C425.649 94.8164 425.585 94.9201 425.53 95.0286C424.369 98.8211 423.662 102.728 422.531 106.692C421.757 105.91 421.337 105.008 420.754 104.226C420.386 103.72 420.052 102.933 419.197 103.487L419.111 103.544C419.109 103.571 419.109 103.598 419.111 103.625C417.678 108.105 416.656 112.689 415.4 117.46C414.12 116.028 413.069 114.759 411.894 113.61C411.316 113.042 411.536 112.264 411.369 111.587C411.369 111.544 411.336 111.496 411.316 111.453C411.283 111.367 411.245 111.283 411.202 111.201C411.022 110.832 410.728 110.532 410.363 110.343C409.999 110.155 409.583 110.088 409.178 110.154C408.773 110.22 408.4 110.414 408.114 110.709C407.828 111.003 407.645 111.381 407.591 111.787C407.519 112.388 407.223 112.598 406.636 112.603C405.872 112.603 405.972 112.126 406.02 111.625C406.096 110.905 405.962 110.304 405.065 110.194C404.501 110.122 403.67 110.442 403.484 109.717C403.221 108.701 402.49 107.809 402.681 106.659C402.925 105.204 403.059 103.735 403.188 102.265C405.824 102.213 406.531 101.311 405.738 98.845C405.26 97.4138 405.81 96.0113 405.738 94.5945C405.705 93.9552 406.325 93.7835 406.889 93.6928C407.453 93.6022 408.097 93.7739 408.604 93.335C408.593 93.3071 408.58 93.28 408.565 93.2539C408.56 93.2292 408.549 93.2062 408.532 93.1872C407.911 91.8562 406.712 91.57 405.385 91.4936H405.26H405.232C404.52 91.9707 404.391 92.734 404.191 93.4591C403.111 97.3566 401.903 101.216 400.809 105.104C400.231 107.165 400.102 107.222 398.125 106.588C394.79 105.483 391.359 104.695 387.876 104.236C385.965 104.002 385.851 103.759 386.443 101.965C387.145 99.8134 387.876 97.6714 388.573 95.5295C388.783 94.8664 389.103 94.1794 388.716 93.4925C388.683 93.4331 388.646 93.3758 388.606 93.3207C388.19 93.315 387.775 93.2751 387.365 93.2015C386.677 93.0202 385.932 92.6147 385.383 93.2969C385.08 93.6748 384.896 94.1336 384.854 94.6157C384.811 95.0977 384.912 95.5816 385.144 96.0065C385.994 97.6094 385.144 99.3459 385.707 100.954C385.894 101.512 385.526 102.337 384.389 102.003C383.253 101.669 382.55 102.246 382.479 103.549C382.527 104.579 382.675 105.204 383.678 104.455Z" fill="#0C1829"/>
<path d="M424.938 106.01C425.644 106.053 425.415 107.866 425.472 108.911C425.53 110.704 426.48 111.244 428.286 110.528C428.385 110.32 428.471 110.107 428.543 109.889C428.621 109.654 428.68 109.413 428.72 109.168C428.767 108.92 428.793 108.668 428.797 108.415C428.481 107.294 427.431 106.158 428.825 105.047C427.684 104.059 427.961 102.552 428.128 101.502C428.4 99.8134 427.55 99.4031 426.518 98.5349C425.673 97.8193 425.664 98.3679 425.535 98.7686C425.384 99.3967 425.275 100.034 425.21 100.677C424.952 102.051 426.413 103.787 424.283 104.822C423.992 104.946 423.481 105.92 424.938 106.01Z" fill="#0C1829"/>
<path d="M425.511 121.753C425.296 121.209 425.114 120.646 424.866 120.117C424.746 119.774 424.504 119.487 424.186 119.311C423.868 119.135 423.496 119.082 423.142 119.163C422.263 119.382 422.421 120.346 422.382 120.951C422.33 121.801 423.137 122.073 423.882 122.106C424.411 122.095 424.937 122.044 425.458 121.953L425.558 121.863L425.511 121.753Z" fill="#0C1829"/>
<path d="M333.869 56.0487C333.87 57.6992 333.739 59.347 333.477 60.9767C333.403 61.2678 333.403 61.5728 333.477 61.864C334.203 63.8962 333.811 64.9791 331.371 64.4878C331.232 64.5135 331.102 64.5738 330.992 64.663C330.883 64.7522 330.798 64.8675 330.745 64.9982C330.745 66.5534 330.134 68.1229 330.745 69.6685C330.888 70.0168 331.519 70.47 331.003 70.6942C329.718 71.2523 329.479 72.4736 328.806 73.4515C328.262 74.2434 327.402 75.0067 327.918 75.8702C328.433 76.7337 329.432 75.8988 330.215 75.8416C332.049 72.4497 333.558 68.91 335.144 65.4037C335.922 63.672 336.901 62.0262 337.532 60.2277C337.943 59.0351 338.597 58.849 339.705 59.4167C343.434 61.2679 346.989 63.4504 350.327 65.938C351.029 66.4771 351.65 67.1402 352.543 67.4025C353.312 67.2833 353.584 66.6679 353.842 66.062C355.679 61.7336 357.503 57.4004 359.315 53.0624C359.592 52.5274 359.664 51.9105 359.521 51.3259C358.422 49.475 356.655 48.3348 354.964 47.1279C352.599 45.415 350.142 43.832 347.604 42.386C347.224 42.2737 346.877 42.0716 346.592 41.7967C346.307 41.5218 346.092 41.1823 345.966 40.8069L344.777 41.2315C344.777 43.6168 343.344 45.4534 342.47 47.4904C341.257 50.3098 339.853 53.0528 338.649 55.877C338.172 56.9885 337.646 57.3368 336.505 56.7071C335.722 56.2586 334.914 55.5669 333.869 56.0487Z" fill="#0C1829"/>
<path d="M352.438 67.2308C348.483 63.4144 343.621 61.0291 338.879 58.434C338.401 58.1668 338.043 58.1763 337.761 58.7965C335.234 64.3685 332.679 69.9309 330.119 75.4933C330.081 75.5792 330.172 75.7175 330.196 75.832C335.091 78.0217 339.901 80.3592 344.209 83.5984C345.565 84.7481 345.856 84.7815 346.477 83.2406C347.705 80.1732 349.262 77.2393 350.241 74.0765C350.718 72.5308 351.674 71.2142 352.223 69.7305C352.466 69.0674 352.872 68.4473 352.7 67.6935C352.648 67.5219 352.558 67.3639 352.438 67.2308Z" fill="#FFAF20"/>
<path d="M388.673 93.3827C387.68 96.5456 386.763 99.737 385.66 102.866C385.182 104.245 385.559 104.512 386.892 104.655C391.095 105.076 395.225 106.038 399.181 107.518C400.346 107.961 400.695 107.661 401.01 106.564C402.443 101.536 403.933 96.5456 405.404 91.5127C405.351 91.4411 405.294 91.3696 405.241 91.2932C403.341 90.2653 401.258 89.6171 399.109 89.385C398.561 89.7579 397.919 89.9698 397.256 89.9968C396.593 90.0238 395.936 89.8647 395.36 89.5377C392.838 88.2544 390.636 89.0845 389.562 91.651C389.476 91.8657 389.5 92.1281 389.275 92.276L388.673 93.3827Z" fill="#FFAF20"/>
<path d="M362.768 86.1888C361.106 90.4155 359.454 94.6517 357.763 98.8688C357.486 99.5558 357.73 99.8229 358.307 100.076C362.229 101.801 366.387 102.926 370.644 103.415C371.599 103.525 371.714 102.991 371.948 102.351C373.285 98.624 374.635 94.9014 375.998 91.1835C376.571 90.6616 376.936 89.9498 377.025 89.1799C377.187 88.3594 376.934 87.6629 376.069 87.62C372.105 87.4292 368.461 86.0219 364.755 84.834C363.628 84.6289 363.795 86.2747 362.768 86.1888Z" fill="#FFAF20"/>
<path d="M347.399 42.6627C351.516 45.2674 355.638 47.8625 359.253 51.1637C359.318 51.22 359.399 51.2549 359.484 51.2634C359.57 51.272 359.656 51.2538 359.731 51.2114C361.166 49.0638 362.179 46.6628 362.716 44.1367C362.694 43.9614 362.608 43.8004 362.473 43.6856C362.339 43.5708 362.166 43.5105 361.99 43.5166C362.19 43.0395 361.101 44.5136 361.708 43.3353C361.73 43.2828 361.739 43.2257 361.733 43.169C361.728 43.1123 361.709 43.0578 361.677 43.0105C361.645 42.9632 361.602 42.9245 361.552 42.8979C361.501 42.8714 361.445 42.8577 361.388 42.8582C360.829 42.8344 360.562 43.2351 360.213 43.8124C360.533 43.0872 361.259 42.8201 361.245 42.1188C361.245 40.8928 361.823 40.5207 362.959 40.8594C363.27 40.9548 363.733 40.8594 363.728 40.6257C363.728 39.433 365.419 38.5696 364.44 37.2529C363.962 36.6375 364.717 36.2988 364.597 35.8217C361.469 32.3727 357.682 29.7966 353.641 27.5497C352.399 27.6451 352.208 28.2748 353.102 28.9808C353.641 29.4102 353.102 29.4579 353.102 29.6964C353.018 29.8294 352.948 29.9699 352.891 30.1162C352.706 30.7037 352.393 31.2429 351.974 31.6953C351.886 31.8283 351.809 31.9687 351.745 32.1151C351.681 32.2725 351.584 32.4148 351.461 32.533C351.339 32.6513 351.193 32.7429 351.034 32.802C349.324 33.5128 349.209 33.9994 350.265 35.526C350.403 35.7216 350.58 36.0698 350.484 36.1509C350.274 36.3322 350.064 35.8885 349.773 35.9935C349.612 36.0347 349.469 36.1247 349.362 36.2511C349.061 36.9953 348.292 37.5248 348.34 38.436C348.34 38.5552 348.521 38.7461 348.454 38.7222C347.686 38.4885 347.275 38.6745 347.437 39.5332C347.485 39.8004 347.437 39.8528 347.241 40.0484C345.923 41.3412 345.942 41.3555 347.399 42.6627Z" fill="#FFAF20"/>
<path d="M364.311 85.1106C368.051 86.5847 371.838 87.8537 375.902 88.0302C376.752 88.0684 376.891 88.4309 376.604 89.1751C376.351 89.8239 376.194 90.5156 375.998 91.1883C376.523 91.2551 376.877 90.9116 377.254 90.6349C378.037 90.0672 378.773 89.5281 379.642 90.5872C380.043 91.0642 380.76 90.8305 381.337 90.8448C381.777 90.8448 382.293 90.7398 382.293 90.2723C382.326 89.6522 381.724 89.7523 381.337 89.7953C380.172 89.9432 379.585 89.3182 379.236 88.3403C377.918 87.806 377.741 86.9616 378.252 85.6592C379.475 82.5584 380.502 79.3813 381.629 76.247C381.939 75.3931 382.584 74.5344 381.968 73.5469C381.013 72.984 379.89 73.2321 378.854 73.0699C375.645 72.5923 372.529 71.627 369.612 70.2076C369.44 70.1556 369.259 70.1382 369.08 70.1563C368.9 70.1745 368.726 70.2279 368.568 70.3135C368.409 70.3991 368.27 70.5151 368.156 70.655C368.043 70.7948 367.958 70.9557 367.907 71.1283C366.274 75.1307 364.707 79.1618 363.26 83.2406C363.007 84.1041 363.184 84.9151 364.311 85.1106Z" fill="#0C1829"/>
<path d="M411.508 61.2295C410.161 60.5778 408.702 60.1922 407.209 60.0941C405.963 60.3135 404.582 60.118 403.713 61.6398C403.288 60.7906 404.377 60.5282 403.837 60.0369C403.441 59.6791 402.954 59.8079 402.481 59.8174C401.664 59.8174 400.833 60.6856 400.012 59.7363C399.897 59.6027 399.467 59.8508 399.247 60.0703C397.747 63.9344 396.443 67.8719 395.341 71.8677C394.906 73.4372 395.159 73.6424 397.562 74.1385C401.516 74.1766 405.246 75.2834 408.952 76.4999C409.313 76.5218 409.67 76.4141 409.958 76.1963C410.246 75.9784 410.447 75.6648 410.524 75.312C411.789 71.3096 413.012 67.2928 413.996 63.2092C414.033 62.9744 414.006 62.734 413.919 62.5128C412.73 61.6588 412.114 62.2408 411.608 63.1997C411.278 62.7083 412.095 61.8974 411.508 61.2295Z" fill="#FFAF20"/>
<path d="M333.869 56.0487C334.918 56.454 335.938 56.9322 336.92 57.4799C337.938 58.1335 338.272 57.7423 338.688 56.8311C340.77 52.2228 342.887 47.6336 345.04 43.0634C345.388 42.324 345.517 41.7467 344.777 41.222C342.217 39.9817 339.643 38.7747 337.135 37.4867C336.18 37.0096 335.76 37.1337 335.277 38.1546C333.1 42.7676 330.841 47.3473 328.543 51.9079C328.023 52.9479 328.18 53.3963 329.26 53.8161C330.821 54.4888 332.326 55.2998 333.869 56.0487Z" fill="#FFAF20"/>
<path d="M382.178 73.6662C380.564 78.16 378.835 82.6204 377.402 87.1572C376.757 89.1465 378.787 87.744 379.312 88.345C383.019 88.1256 386.725 88.2878 390.431 88.345L390.689 88.2353C391.644 87.1667 391.773 85.7499 392.184 84.4714C393.139 81.4787 394.134 78.4939 395.169 75.5171C395.646 73.3609 395.298 72.7121 393.258 72.8552C389.662 73.1033 386.046 72.9268 382.469 73.4563L382.178 73.6662Z" fill="#FFAF20"/>
<path d="M413.728 62.279C412.773 66.7919 411.197 71.1283 410.017 75.5792C409.869 76.1326 409.54 76.3568 409 76.2137C408.608 76.9674 408.131 77.7259 409.096 78.4272C410.051 77.3157 411.006 77.3443 412.243 78.0646C414.187 79.1809 416.164 80.2114 417.783 81.7999C418.044 82.1241 418.417 82.3386 418.829 82.401C419.784 82.1482 419.784 81.2943 420.004 80.5739C420.859 77.4254 421.776 74.2912 422.569 71.1235C422.619 70.5973 422.856 70.1065 423.237 69.7401C424.189 70.8806 424.969 72.1533 425.554 73.5183C425.84 74.1433 425.902 74.9495 426.719 75.2071C427.35 74.9304 427.483 74.3246 427.641 73.7759C428.066 72.2303 428.424 70.6656 428.859 69.1199C429.007 68.6047 429.131 68.0657 428.649 67.6315C428.386 68.1801 427.521 67.2308 427.397 68.1086C426.652 67.808 425.449 68.1515 425.487 66.7585C425.487 66.52 425.568 66.1813 425.444 66.062C423.925 64.545 425.296 63.2665 425.621 61.8258C425.917 60.5235 425.917 59.2021 427.087 58.2861C427.335 58.4197 427.211 58.6487 427.173 58.8538C427.087 59.3786 426.275 59.8079 426.934 60.4138C427.149 60.6189 427.517 60.7525 427.713 60.4472C428.066 59.9081 428.567 59.0542 428.228 58.6725C427.223 57.5571 426.631 56.1308 426.552 54.6319C426.552 54.5508 426.251 54.4936 426.074 54.422C425.091 58.1382 424.064 61.8449 423.085 65.5611C422.664 67.1497 422.531 67.2213 421.327 66.1241C419.659 64.6952 417.821 63.4774 415.854 62.4985C415.209 62.1598 414.526 61.6445 413.728 62.279Z" fill="#0C1829"/>
<path d="M369.584 70.5845C373.422 72.7378 377.777 73.8034 382.178 73.6662L382.13 73.7139C383.324 72.5928 383.482 70.9804 383.974 69.5636C385.034 66.52 386.486 63.5957 386.973 60.366L386.815 60.137C382.321 60.2801 378.07 59.4596 374.274 56.8979C373.657 56.7214 373.366 57.1507 373.204 57.58C371.737 61.4966 369.918 65.2892 368.905 69.3727C368.867 69.9261 369.33 70.1933 369.584 70.5845Z" fill="#FFAF20"/>
<path d="M349.524 36.0937C350.322 36.0507 350.055 36.7806 350.427 37.2148C350.671 36.2607 351.616 35.3495 349.949 34.8295C349.88 34.8039 349.817 34.7626 349.767 34.7087C349.716 34.6549 349.679 34.5901 349.657 34.5193C349.636 34.4485 349.632 34.3738 349.644 34.3009C349.657 34.2281 349.686 34.1592 349.73 34.0996C350.031 33.6798 350.375 33.0406 350.9 33.1455C352.251 33.4651 352.032 32.5874 351.803 31.6571C351.549 31.3661 351.607 31.2087 351.693 31.2135C351.888 31.2135 351.822 31.4472 351.874 31.576C351.914 31.6776 351.976 31.769 352.056 31.8432C351.931 31.6571 351.664 31.6762 351.803 31.6619C352.786 31.4711 353.235 30.9177 353.13 30.0542L354.257 28.7757C353.842 28.4132 353.078 29.2098 352.901 28.3559C352.796 27.8502 353.25 27.6642 353.637 27.4925C352.868 26.982 352.595 26.4906 353.092 25.4793C354.926 21.744 356.574 17.918 358.393 14.1732C358.938 13.0521 358.947 12.4176 357.73 11.7879C355.552 10.6812 353.431 9.45516 351.334 8.21482C350.484 7.73777 350.035 7.73777 349.572 8.72527C347.724 12.6514 345.842 16.568 343.841 20.4321C343.268 21.5579 343.597 21.9443 344.586 22.4357C346.931 23.5949 349.228 24.8687 351.53 26.1233C352.008 26.3809 352.681 26.505 352.247 27.4066C350.107 31.8479 348.025 36.3131 345.918 40.764C345.307 42.2238 346.53 42.2763 347.351 42.6293C346.721 41.7133 346.234 41.16 347.49 39.9721C348.378 39.1277 349.572 37.7729 349.477 36.0603C349.658 36.0603 349.453 36.3465 349.529 36.1175C349.529 36.0651 349.496 36.0412 349.391 36.046C349.152 36.046 349.391 36.2988 349.262 36.1032C349.233 36.0269 349.329 35.9649 349.524 36.0937Z" fill="#FFAF20"/>
<path d="M399.663 59.4167C401.034 55.2997 402.395 51.178 403.785 47.0658C404.052 46.2739 403.737 46.1117 403.044 46.1928C399.372 46.5745 395.699 46.9657 392.026 47.3282C391.238 47.4093 391.147 47.9961 390.952 48.5542C389.579 52.4184 388.201 56.2793 386.815 60.137L386.787 60.0798C387.008 60.2809 387.269 60.4332 387.553 60.5269C387.837 60.6206 388.137 60.6536 388.435 60.6236C392.11 60.4784 395.777 60.1488 399.419 59.6361L399.663 59.4167Z" fill="#FFAF20"/>
<path d="M413.728 62.279C416.594 62.9469 418.843 64.6643 421.055 66.4818C421.647 66.9589 422.182 67.5027 422.889 68.142C424.03 63.8485 425.129 59.7459 426.232 55.6337C426.315 55.2245 426.257 54.7996 426.07 54.4267C424.061 52.3309 421.722 50.579 419.144 49.2412C418.189 48.7641 417.802 48.7641 417.487 49.9425C416.58 53.3629 415.419 56.7166 414.55 60.1418C414.158 61.6731 413.714 62.3506 412.162 61.3774C411.947 61.29 411.72 61.2353 411.488 61.2152C410.906 62.2218 411.522 63.2092 411.546 64.2874C411.713 62.9373 412.525 62.3935 413.728 62.279Z" fill="#FFAF20"/>
<path d="M369.584 70.5845C369.474 70.179 369.359 69.7687 369.244 69.3584C366.809 69.3298 365.605 67.6792 364.574 65.8044C364.297 65.3035 364.392 64.5927 363.738 64.3017C363.529 64.3304 363.332 64.4172 363.17 64.5521C363.008 64.6871 362.887 64.8648 362.821 65.065C361.316 68.8814 359.516 72.5738 358.403 76.5142C358.403 77.5303 357.629 78.4701 358.116 79.5244C358.475 81.5375 360.027 82.5823 361.593 83.441C362.835 84.1279 363.547 84.7529 362.768 86.1697C364.545 87.6009 363.604 85.1774 364.311 85.0916C363.657 84.6956 363.303 84.2949 363.661 83.4028C365.285 79.3574 366.842 75.2929 368.375 71.2094C368.628 70.5463 368.886 70.2314 369.584 70.5845Z" fill="#FFAF20"/>
<path d="M362.467 44.0604C361.647 46.4994 360.65 48.8751 359.482 51.1685C359.416 51.3353 359.395 51.5164 359.421 51.6939C359.447 51.8714 359.519 52.0389 359.63 52.1798C361.063 54.0022 361.99 56.1107 363.212 58.0476C364.168 57.9856 364.445 57.1936 364.726 56.5067C366.216 52.8525 367.745 49.2078 369.058 45.482C369.125 45.2531 369.431 45.5584 369.221 45.4439C369.178 45.4439 369.144 45.4439 369.111 45.5345C368.861 46.0352 368.739 46.5896 368.755 47.1487C368.771 47.7079 368.924 48.2545 369.201 48.7403C369.851 49.0218 370.247 48.6497 370.472 48.1392C371.561 45.6633 372.616 43.1731 373.457 40.597C373.498 40.4547 373.504 40.3046 373.475 40.1593C373.446 40.014 373.383 39.8778 373.29 39.7622C372.072 40.5875 372.101 42.1188 371.346 43.2256C370.773 44.07 370.267 43.9603 369.574 43.5786C369.242 41.3898 368.31 39.3357 366.88 37.6441C366.556 37.2625 366.283 36.69 365.605 36.8904C365.383 36.979 365.19 37.1276 365.047 37.3197C364.904 37.5118 364.818 37.7398 364.798 37.978C364.432 39.2262 363.897 40.4187 363.208 41.5225C362.794 42.3108 362.542 43.1737 362.467 44.0604Z" fill="#0C1829"/>
<path d="M362.467 44.0604L365.691 36.9333C367.135 38.4489 368.212 40.2751 368.839 42.2715C369.001 42.7486 369.001 43.3258 369.574 43.5786C370.878 40.2727 371.962 36.857 373.543 33.6894C375.066 30.6315 374.498 27.9647 372.955 25.2789C372.554 24.5681 372.23 23.7953 371.422 23.1847C369.698 27.2778 367.965 31.2946 366.326 35.3686C365.849 36.4944 365.457 36.7997 364.602 35.7836C364.072 36.0555 362.582 35.7168 363.871 37.0955C364.593 37.8636 364.497 37.9637 363.394 38.5267C363.107 38.6841 363.16 38.9083 363.274 39.0991C364.163 40.5589 363.752 40.7211 362.319 40.12C361.703 39.8576 360.853 40.3442 360.886 40.8165C361.006 42.1379 360.079 43.1159 359.793 44.6329C360.471 43.9793 360.514 43.2018 361.359 43.0586C361.617 43.5357 360.686 43.8839 361.14 44.3896C361.622 44.4087 361.808 43.1827 362.467 44.0604Z" fill="#FFAF20"/>
<path d="M363.805 64.4448C364.015 67.3405 366.193 68.6619 368.308 70.0167C369.082 70.4938 368.786 69.4061 369.264 69.3584C370.558 65.2701 372.263 61.3392 373.806 57.3415C373.877 57.1602 374.126 57.0457 374.283 56.8978L374.226 56.4208C371.599 55.2043 370.176 52.986 369.206 50.3909C369.029 50.417 368.863 50.4947 368.73 50.6144C368.597 50.734 368.501 50.8902 368.456 51.0635C366.794 55.1614 364.951 59.1734 363.614 63.4144C363.423 63.7865 364.206 64.0011 363.805 64.4448Z" fill="#0C1829"/>
<path d="M369.154 50.5149C369.354 52.9622 370.725 54.6796 372.645 56.0344C373.094 56.354 373.548 56.8978 374.211 56.4017C375.534 52.8477 376.805 49.2746 378.209 45.7587C378.687 44.609 378.539 44.0032 377.483 43.2876C375.606 42.0043 375.095 40.9977 374.255 38.1116L373.299 39.7622C372.196 42.5863 371.078 45.4057 369.994 48.2394C369.841 48.6449 369.684 48.8357 369.254 48.6783C368.819 49.2698 369.154 49.9043 369.154 50.5149Z" fill="#FFAF20"/>
<path d="M324.188 49.3939L339.542 19.9741C342.016 15.2036 344.495 10.4856 346.931 5.71509C347.146 5.29051 347.958 4.76099 347.175 4.21715C346.592 3.82597 345.885 4.11697 345.36 4.54631C345.051 4.82535 344.802 5.16466 344.629 5.54335C337.583 19.9089 330.543 34.2777 323.509 48.6497C323.472 48.7611 323.446 48.8762 323.433 48.9931C323.242 49.2555 323.223 49.5608 323.505 49.7135C323.786 49.8662 324.006 49.6133 324.188 49.3939Z" fill="#FFAF20"/>
<path d="M352.481 67.7365C350.252 73.2162 348.023 78.6896 345.794 84.1566C345.059 84.2902 344.782 83.6271 344.261 83.608C344.204 83.9133 343.889 84.2329 344.462 84.4524C345.411 84.8091 346.442 84.895 347.437 84.7004C348.01 84.5955 348.488 84.376 348.297 83.4839C348.029 82.2484 348.774 80.9937 348.297 79.6675C348.058 78.9663 349.004 79.076 349.486 79.0903C351.592 79.138 351.301 79.1476 351.096 77.1821C350.909 75.4266 349.883 73.2894 352.013 71.7771C353.646 73.8427 353.923 76.3043 354.114 78.7993C354.157 79.3908 353.689 79.4242 353.393 79.6675C352.323 80.5644 351.401 81.4708 351.139 83.0069C350.919 84.2902 351.139 85.1775 352.146 85.9312C352.356 85.915 352.556 85.833 352.716 85.6967C352.877 85.5605 352.99 85.3771 353.039 85.1727C354.329 81.7952 355.962 78.556 357.027 75.0926C356.894 74.3961 357.338 73.8093 357.414 73.151C356.937 70.823 355.389 69.2201 353.675 67.7556C353.336 67.498 352.887 67.1306 352.481 67.7365Z" fill="#0C1829"/>
<path d="M428.649 67.6172C428.075 70.1122 427.693 72.6644 426.59 75.0115C426.521 75.0767 426.468 75.1575 426.437 75.2471C426.405 75.3367 426.396 75.4326 426.409 75.5267C427.006 77.0108 427.684 78.4616 428.438 79.8726C428.682 80.2781 428.969 80.7265 429.537 80.6073C430.015 80.5071 430.1 80.0539 430.239 79.6532C430.612 78.5305 430.796 77.3536 430.783 76.1707C431.219 73.634 431.833 71.1312 432.622 68.681L430.1 62.6082C429.537 64.545 429.093 66.0811 428.649 67.6172Z" fill="#FFAF20"/>
<path d="M356.703 74.7634C355.299 78.5416 353.837 82.2913 352.122 85.9455C352.01 86.5217 351.823 87.0812 351.569 87.6104C350.193 89.7046 350.881 91.7989 351.487 94.3416L355.662 83.9848C356.216 82.6061 356.784 81.237 357.314 79.8488C357.491 79.3717 357.658 79.1427 358.116 79.5435C358.25 78.4844 359 77.5637 358.828 76.4331C358.303 76.4903 358.198 76.9101 358.069 77.3061C358.23 76.3623 358.098 75.3918 357.691 74.5249C357.3 73.6662 356.86 73.9047 356.703 74.7634Z" fill="#FFAF20"/>
<path d="M389.275 92.276C389.51 92.1447 389.709 91.9569 389.854 91.7295C389.998 91.5021 390.083 91.2422 390.101 90.9736C390.101 89.3755 391.615 90.7542 392.145 89.8239C392.556 89.1084 393.655 88.7983 394.686 89.6426C395.202 90.0672 395.89 90.5967 396.759 90.5061C397.561 90.4446 398.336 90.191 399.018 89.7667C399.018 89.5902 399.018 89.366 398.822 89.2896C396.076 88.3355 393.273 87.8585 390.359 88.3355L390.407 88.3021L389.275 92.276Z" fill="#FFAF20"/>
<path d="M324.188 49.3938C323.772 49.5703 323.443 49.5799 323.428 48.9931C321.908 51.6023 320.568 54.3118 319.416 57.103C319.316 57.5514 319.507 57.7184 319.942 57.6564C321.515 54.9861 322.933 52.2273 324.188 49.3938Z" fill="#FFAF20"/>
<path d="M399.687 60.1036C400.68 59.6266 400.752 60.304 400.723 61.1961C401.449 59.8317 402.634 60.304 403.656 60.18C403.044 60.5473 402.466 60.8908 402.782 61.7113C403.297 61.2629 404.157 62.3696 404.601 61.2342C404.727 60.9602 404.953 60.7447 405.233 60.6321C405.513 60.5194 405.825 60.518 406.106 60.6284C406.703 60.8383 406.984 60.5473 407.214 60.0798C404.74 59.3451 402.204 59.3451 399.663 59.4024L399.711 59.3594C399.653 59.4023 399.607 59.4575 399.574 59.5209C399.54 59.5843 399.522 59.6544 399.52 59.7258C399.518 59.7973 399.531 59.8683 399.56 59.9337C399.589 59.9991 399.632 60.0572 399.687 60.1036Z" fill="#FFAF20"/>
<path d="M319.961 57.6421C319.784 57.4608 319.612 57.2747 319.435 57.0887C317.902 59.6075 316.761 62.3362 315.49 64.96C315.352 65.4371 315.581 65.5707 316.016 65.5086L319.961 57.6421Z" fill="#FFAF20"/>
<path d="M313.68 68.5618L310.815 74.2864C310.686 74.668 310.862 74.7634 311.216 74.73L314.134 69.0293C314 68.8766 313.957 68.6047 313.68 68.5618Z" fill="#FFAF20"/>
<path d="M311.23 74.7491L310.829 74.3054L308.666 78.6275C308.58 79.0044 308.742 79.1046 309.091 79.033C309.801 77.6177 310.514 76.1898 311.23 74.7491Z" fill="#FFAF20"/>
<path d="M313.68 68.5618L314.158 69.0388L316.006 65.4991L315.481 64.9505L313.68 68.5618Z" fill="#FFAF20"/>
<path d="M418.695 82.1863C416.489 79.5816 413.523 78.0789 410.466 76.81C409.033 76.2184 409.783 78.1028 409.033 78.4462C408.484 78.8136 408.403 79.429 408.222 79.9823C407.161 83.1977 406.34 86.4845 405.385 89.7285C405.203 90.3344 404.907 90.9831 405.428 91.5938L405.389 91.5222L408.733 93.3159C410.705 94.8515 412.814 96.204 415.032 97.3565C415.237 97.2308 415.414 97.0635 415.55 96.8655C415.687 96.6675 415.78 96.4431 415.825 96.2068C416.728 92.691 417.735 89.2037 418.638 85.6831C418.741 85.2764 418.764 84.8534 418.705 84.438C418.557 83.8703 418.356 83.3742 417.626 83.67C417.96 83.2024 419.302 83.3599 418.695 82.1863Z" fill="#FFAF20"/>
<path d="M414.75 97.2277C413.068 95.4888 411.014 94.1516 408.742 93.3159C408.217 93.2873 407.687 93.2205 407.156 93.2396C405.776 93.2968 405.127 93.7548 405.246 95.4149C405.37 96.9653 405.074 98.4871 405.685 100.066C406.163 101.278 404.931 102.337 403.651 101.803C402.629 101.378 402.567 101.984 402.619 102.471C402.771 104.007 402.608 105.559 402.142 107.031C401.826 108.095 403.097 108.505 402.968 109.607C402.777 111.172 404.043 110.642 404.94 110.628C406.302 110.628 405.728 111.492 405.494 112.093C405.122 113.047 405.155 113.428 406.378 113.147C407.295 112.932 408.723 113.595 408.03 111.611C407.873 111.172 408.508 110.728 409.076 110.561C410.084 110.261 410.605 110.929 411.125 111.592C411.298 111.545 411.455 111.453 411.581 111.325C411.707 111.198 411.797 111.04 411.842 110.867C412.983 106.726 414.402 102.652 414.994 98.3774C414.645 98.0578 414.975 97.5807 414.75 97.2277Z" fill="#0C1829"/>
<path d="M414.755 98.0197C413.752 102.595 412.525 107.117 411.135 111.592C410.753 112.832 410.996 113.738 412.09 114.635C413.361 115.666 414.349 117.021 415.658 118.476C416.685 114.507 417.697 110.757 418.605 106.979C418.863 105.901 419.493 104.899 419.359 103.725C418.982 103.305 419.393 102.847 419.297 102.413C418.682 100.758 417.651 99.2896 416.303 98.1485C415.887 97.7573 415.352 97.0894 414.755 98.0197Z" fill="#FFAF20"/>
<path d="M419.068 102.561C418.934 103.014 418.342 103.587 419.378 103.725C420.439 103.606 420.396 104.646 420.811 105.156C421.446 105.92 421.962 106.783 422.807 108.019C423.882 103.448 424.861 99.3029 425.835 95.1621C426.067 94.3614 426.03 93.5069 425.73 92.7292C425.412 91.846 425.003 90.9986 424.508 90.2008C424.145 89.6045 423.744 88.9509 422.846 89.4041C421.575 92.8723 420.935 96.5217 419.88 100.052C419.641 100.892 419.655 101.827 419.068 102.561Z" fill="#FFAF20"/>
<path d="M423.003 89.5139C423.853 89.1179 423.839 89.948 424.064 90.3201C424.579 91.1788 425.019 92.0947 425.496 92.9868C425.788 93.8264 426.222 94.0792 426.791 93.2253C427.194 92.4944 427.46 91.6956 427.574 90.8687C428.137 88.4421 428.72 86.0171 429.322 83.5937C429.494 82.9067 429.589 82.1625 430.21 81.6855C430.85 80.1446 431.5 78.6085 430.869 76.8911C430.908 76.643 431.256 76.3663 430.807 76.1564L429.561 80.4499C428.128 78.9758 428.032 76.8339 426.6 75.5267C425.893 76.1135 425.898 76.9961 425.673 77.7784C424.689 81.1893 424.035 84.6909 422.807 88.0255C422.487 88.6027 422.282 89.1322 423.003 89.5139Z" fill="#0C1829"/>
<path d="M421.838 111.592C421.055 114.804 420.273 118.013 419.493 121.219C419.044 123.065 419.111 123.203 420.993 124.348C422.129 119.73 423.276 115.155 424.336 110.571C424.598 109.445 423.486 109.011 422.87 108.081C422.507 109.178 422.206 110.075 421.914 110.972C421.865 111.004 421.823 111.047 421.791 111.098C421.76 111.148 421.74 111.205 421.733 111.264C421.725 111.323 421.731 111.383 421.749 111.439C421.767 111.496 421.798 111.548 421.838 111.592Z" fill="#FFAF20"/>
<path d="M430.091 81.633C428.926 80.8983 429.217 82.153 429.136 82.463C428.228 85.874 427.359 89.2896 426.59 92.7339C426.327 93.898 426.007 93.6069 425.473 92.9868C425.597 93.7071 425.726 94.4179 425.85 95.1574C426.146 94.9522 426.184 93.8598 426.843 94.8759C427.096 95.2623 427.416 95.601 427.856 96.1449C428.887 91.9134 429.876 87.9014 430.826 83.8847C430.859 83.474 430.83 83.0608 430.74 82.6586C430.754 82.4411 430.699 82.2249 430.582 82.0408C430.465 81.8566 430.293 81.7139 430.091 81.633Z" fill="#FFAF20"/>
<path d="M430.091 81.633C430.114 81.842 430.184 82.043 430.297 82.2208C430.41 82.3985 430.561 82.5482 430.74 82.6587C430.872 82.7237 430.983 82.8234 431.063 82.9469C431.142 83.0705 431.185 83.2133 431.189 83.3599C431.419 84.7291 432.273 85.1727 433.19 84.2234C434.193 83.1739 435.23 81.9574 434.327 80.2591C434.081 79.7856 433.898 79.282 433.783 78.7611C433.195 76.2423 433.205 76.2423 430.846 76.9102C430.597 78.5004 430.346 80.0746 430.091 81.633Z" fill="#0C1829"/>
<path d="M412.849 118.538C414.25 119.678 415.577 120.904 416.823 122.211C416.871 120.87 415.806 118.996 414.645 118.872C414.201 118.784 413.768 118.644 413.356 118.457C413.272 118.421 413.18 118.409 413.091 118.423C413.001 118.438 412.917 118.477 412.849 118.538Z" fill="#0C1829"/>
<path d="M435.645 68.9291C435.239 69.8164 434.967 70.3602 434.103 70.6894C433.463 70.9422 434.49 72.1205 434.681 72.9315C434.872 73.7425 435.731 73.442 436.338 73.2416C437.04 73.0126 437.518 72.5499 437.169 71.7723C436.773 70.8898 436.257 70.0549 435.645 68.9291Z" fill="#0C1829"/>
<path d="M418.605 119.072C418.905 118.991 419.651 119.363 419.56 118.409C419.45 117.378 419.292 116.377 417.941 116.305C416.761 116.243 416.508 117.469 416.541 117.965C416.603 118.795 417.516 119.215 418.605 119.072Z" fill="#0C1829"/>
<path d="M410.27 115.613C411.006 115.442 411.226 115.456 411.025 116.31C410.91 116.863 411.818 116.219 412.186 116.567C412.458 116.82 412.573 116.567 412.663 116.353C412.84 115.876 412.424 115.675 412.186 115.518C411.457 115.039 410.696 114.612 409.907 114.239C409.738 114.18 409.554 114.181 409.385 114.243C409.217 114.304 409.076 114.423 408.986 114.578C408.895 114.712 408.986 115.022 409.062 115.213C409.093 115.336 409.155 115.449 409.241 115.542C409.327 115.635 409.436 115.704 409.556 115.744C409.677 115.784 409.805 115.793 409.93 115.77C410.055 115.747 410.172 115.693 410.27 115.613Z" fill="#0C1829"/>
<path d="M430.879 95.9922C430.117 96.5003 429.189 96.6983 428.286 96.5456C428.228 97.3804 428.672 97.8956 428.897 98.6207C429.938 98.0006 430.225 96.8604 430.879 95.9922Z" fill="#0C1829"/>
<path d="M421.838 111.592C421.867 111.387 421.9 111.177 421.929 110.972C421.929 110.127 421.341 110.251 420.816 110.375C420.291 110.499 420.696 110.814 420.711 111.057C420.735 111.945 421.346 111.654 421.838 111.592Z" fill="#0C1829"/>
<path d="M417.936 111.258C418.135 111.413 418.344 111.554 418.562 111.682C418.738 111.763 418.939 111.682 418.867 111.472C418.775 111.271 418.622 111.104 418.428 110.995C418.347 110.967 418.184 111.119 417.936 111.258Z" fill="#0C1829"/>
<path d="M419.488 105.729C419.633 105.846 419.794 105.941 419.966 106.01C420.023 106.01 420.152 105.796 420.248 105.681C420.117 105.578 419.978 105.487 419.832 105.409C419.631 105.333 419.493 105.39 419.488 105.729Z" fill="#0C1829"/>
<path d="M352.481 67.7365C353.345 67.3405 353.603 68.1611 354.004 68.557C355.427 69.856 356.491 71.4989 357.094 73.3275C357.816 73.4325 358.05 72.8505 358.207 72.3734C359.926 67.9368 361.971 63.6338 363.461 59.1114C363.467 58.7019 363.377 58.2967 363.198 57.9283C362.888 55.7339 361.55 54.0833 360.256 52.4136C359.955 52.0224 359.301 51.8173 359.482 51.1494H359.239C359.309 51.345 359.335 51.5534 359.316 51.7602C359.297 51.967 359.233 52.1671 359.129 52.3468C357.152 57.0187 355.176 61.6906 353.202 66.3626C353.039 66.749 352.939 67.1545 352.433 67.2165L352.481 67.7365Z" fill="#FFAF20"/>
<path d="M405.452 91.5938C406.604 87.5516 407.754 83.5126 408.9 79.4767C408.974 79.137 409.027 78.7928 409.057 78.4463C408.58 77.7116 409.382 76.9483 409.01 76.2137C405.416 74.5537 401.506 73.688 397.547 73.6758C397.036 75.0306 395.436 74.8875 394.61 75.813C393.196 79.9983 391.781 84.1836 390.364 88.369C393.258 88.7935 396.229 88.7315 399.023 89.7667C401.282 89.9384 403.274 91.0881 405.452 91.5938Z" fill="#0C1829"/>
<path d="M394.605 75.8129C395.76 75.6727 396.846 75.1909 397.724 74.4295C398.273 74.0049 397.504 73.9524 397.542 73.6757C397.15 73.5515 396.744 73.4699 396.334 73.4324C395.513 73.4324 395.322 73.1701 395.589 72.3782C396.979 68.2946 398.326 64.1967 399.687 60.1036V59.3737C395.36 59.2831 391.09 60.2611 386.763 60.0798L382.106 73.7139C385.607 73.628 389.103 73.5183 392.614 73.4611C395.083 73.4229 395.083 73.4515 394.605 75.8129Z" fill="#0C1829"/>
<path d="M422.965 88.3594C423.333 88.3594 423.486 88.0922 423.557 87.806C424.57 83.732 425.576 79.6548 426.576 75.5744V75.0258C425.744 72.5971 424.485 70.3356 422.86 68.3471C421.661 72.7598 420.549 76.8386 419.445 80.9174C419.312 81.4231 419.34 82.0051 418.681 82.1959C418.643 82.3629 418.648 82.6396 418.552 82.6729C417.315 83.1786 417.989 83.8703 418.342 84.5334C419.13 84.2806 419.168 83.6843 419.159 83.1548C420.735 84.543 421.337 86.8042 422.965 88.3594Z" fill="#FFAF20"/>
<path d="M425.482 69.2773C425.578 69.3871 425.668 69.5779 425.792 69.6017C425.834 69.6107 425.877 69.6078 425.917 69.5934C425.957 69.5789 425.992 69.5535 426.018 69.5201C426.043 69.4867 426.06 69.4466 426.064 69.4045C426.068 69.3624 426.06 69.3199 426.041 69.2821C425.979 69.1438 425.802 69.0579 425.673 68.9529L425.482 69.2773Z" fill="#1E1E1E"/>
<path d="M352.466 30.1306C351.511 30.6839 351.081 31.1753 350.866 31.9338C352.29 32.2582 352.247 31.2755 352.466 30.1306Z" fill="#FFAF20"/>
<path d="M348.932 36.6423C349.362 36.3274 349.739 36.1366 349.668 35.6882C349.668 35.6118 349.386 35.4926 349.281 35.526C348.784 35.6739 348.846 36.0889 348.932 36.6423Z" fill="#FFAF20"/>
<path d="M353.192 30.1019C353.049 29.5056 352.944 29.1478 352.342 29.1478C352.395 29.6821 352.786 29.8586 353.192 30.1019Z" fill="#FFAF20"/>
<path d="M363.198 58.7297C361.259 63.6386 359.549 68.6381 357.094 73.3323C357.051 73.8332 356.02 74.0622 356.703 74.7634C356.946 74.6442 357.238 73.7521 357.424 74.7253C357.634 75.8034 357.658 76.9149 357.792 78.3365L358.828 76.4283C360.356 72.3782 361.694 68.2517 363.805 64.44C364.984 64.2683 363.805 63.8962 363.876 63.6291C363.652 62.4698 364.301 61.3487 364.034 60.1895C363.9 59.6314 364.163 58.8251 363.198 58.7297Z" fill="#0C1829"/>
<path d="M363.198 58.7297C363.934 59.6838 363.437 60.7763 363.599 61.7924C363.695 62.403 363.313 63.09 363.876 63.6338C365.64 59.264 367.401 54.8911 369.159 50.5149C370.076 49.952 369.221 49.2937 369.259 48.6783V44.7521C368.437 45.5965 368.256 46.584 367.893 47.4427C366.622 50.4815 365.448 53.5585 364.177 56.6021C363.977 57.0791 363.996 57.8329 363.222 57.9474C362.802 58.2002 363.15 58.4674 363.198 58.7297Z" fill="#FFAF20"/>
<path d="M369.665 45.6347C369.693 45.8923 369.818 46.0879 370.09 46.0354C370.224 46.0068 370.329 45.8255 370.448 45.7158C370.309 45.5668 370.148 45.4398 369.97 45.3389C369.736 45.253 369.689 45.4582 369.665 45.6347Z" fill="#1E1E1E"/>
<path d="M422.965 88.3594C422.073 86.2557 420.842 84.3122 419.321 82.6061C418.571 83.15 418.877 84.0373 418.366 84.543C417.315 88.8364 416.503 93.1633 414.76 97.2421C414.717 97.5044 414.363 97.7716 414.76 98.034C415.209 97.4854 415.567 97.7764 415.901 98.1628C417.1 99.5319 418.323 100.887 419.073 102.575C419.517 102.909 419.713 102.838 419.861 102.246C420.921 98.0101 422.182 93.8216 423.008 89.5281C422.886 89.3593 422.817 89.1582 422.809 88.9503C422.802 88.7423 422.856 88.5367 422.965 88.3594Z" fill="#0C1829"/>
</g>
<defs>
<clipPath id="clip0_60_25807">
<rect width="137" height="132" fill="white"/>
</clipPath>
<clipPath id="clip1_60_25807">
<rect width="137" height="132" fill="white" transform="matrix(-1 0 0 1 438 0)"/>
</clipPath>
</defs>
</svg>
