<svg width="33" height="38" viewBox="0 0 33 38" fill="none" xmlns="http://www.w3.org/2000/svg">
<path d="M16.5067 14.8788L32.9508 0.0341579C32.9732 0.356835 32.9955 0.541221 32.997 0.724121C32.997 3.64605 33.0075 6.56947 32.9821 9.49735C32.9805 9.82896 32.8532 10.1477 32.6257 10.3895C27.3665 14.9615 22.0974 19.5216 16.8184 24.0698C16.7274 24.1487 16.6275 24.2185 16.4978 24.3167L10.2941 18.9635C7.0263 16.1442 3.76195 13.3214 0.501069 10.4951C0.296767 10.3167 0.0536925 10.0342 0.0536925 9.79773C0.0238674 6.60516 0.0328127 3.4126 0.0328127 0.0192871L16.5067 14.8788Z" fill="#0C1829"/>
<path d="M0.0148891 13.8335L16.5052 28.5919L32.9582 13.8707C32.9791 14.1532 32.997 14.2885 32.997 14.4223C32.997 17.3458 33.0089 20.2692 32.9821 23.1956C32.982 23.5266 32.8563 23.8454 32.6301 24.0878C27.3531 28.6766 22.0626 33.2516 16.7587 37.8127C16.6703 37.8816 16.5782 37.9456 16.4828 38.0045C15.1447 36.8556 13.81 35.7081 12.4788 34.5621C8.53145 31.1539 4.60199 27.7339 0.644195 24.351C0.43146 24.1903 0.261495 23.9801 0.149179 23.7388C0.0368622 23.4974 -0.0143686 23.2323 -1.9822e-05 22.9666C0.0312966 20.2186 0.0148891 17.4647 0.0148891 14.7183V13.8335Z" fill="#0C1829"/>
</svg>
