<svg width="121" height="38" viewBox="0 0 121 38" fill="none" xmlns="http://www.w3.org/2000/svg">
<g clip-path="url(#clip0_189_37667)">
<path d="M77.5 13.0001C75.56 13.0001 74.38 14.46 74.33 16.69C74.33 17.69 74.33 17.5701 74.33 17.4901C74.33 17.5701 74.33 17.8001 74.33 18.3401C74.3508 18.8996 74.2539 19.4573 74.0456 19.977C73.8372 20.4968 73.5221 20.967 73.1205 21.3572C72.719 21.7475 72.2399 22.0491 71.7145 22.2425C71.189 22.4359 70.6287 22.5168 70.07 22.4801H46.96C46.3247 22.4766 45.7003 22.3148 45.1433 22.0092C44.5863 21.7037 44.1143 21.264 43.77 20.7301C43.9216 19.9323 43.9986 19.1221 44 18.3101V17.39C44 17.3 44 17.0901 44 16.5601C43.87 14.4401 42.55 13.0001 40.7 13.0001C38.85 13.0001 37.58 14.3801 37.5 16.5601V17.48C37.5 17.56 37.5 17.7801 37.5 18.3601C37.5122 18.8988 37.4154 19.4345 37.2155 19.9349C37.0155 20.4353 36.7165 20.8902 36.3364 21.2722C35.9563 21.6542 35.5029 21.9554 35.0034 22.1578C34.504 22.3602 33.9688 22.4596 33.43 22.45C32.7942 22.4716 32.1638 22.3271 31.6009 22.0307C31.038 21.7344 30.5621 21.2964 30.22 20.7601C29.7223 23.0026 28.6109 25.0626 27.01 26.71L27.37 26.9701C29.0868 28.2566 31.1672 28.9661 33.3124 28.9967C35.4576 29.0272 37.5573 28.3772 39.31 27.14C39.5447 26.9712 39.7921 26.8208 40.05 26.6901H40.1C40.4566 26.7964 40.7941 26.9583 41.1 27.17C42.8301 28.3447 44.8689 28.9814 46.96 29H69.96C72.7188 29.0898 75.4052 28.108 77.4559 26.2605C79.5067 24.413 80.7625 21.8432 80.96 19.09C81.0451 18.2622 81.0451 17.4279 80.96 16.6C80.9939 16.1305 80.9287 15.6591 80.7687 15.2163C80.6087 14.7736 80.3575 14.3694 80.0312 14.03C79.705 13.6906 79.3111 13.4235 78.8751 13.2461C78.439 13.0686 77.9705 12.9848 77.5 13.0001Z" fill="#0C1829"/>
<path d="M35.73 32.12C34.3536 32.7588 32.8264 33.0012 31.32 32.82C30.8432 32.7386 30.377 32.6044 29.93 32.42C29.8 32.42 30.18 32.55 29.93 32.42H29.84C26.94 30.8 24.37 35.25 27.27 36.81C28.7908 37.5687 30.4582 37.9884 32.157 38.0402C33.8558 38.092 35.5457 37.7746 37.11 37.11C37.7508 36.9103 38.2925 36.4757 38.6263 35.8933C38.9602 35.311 39.0615 34.6239 38.91 33.97C38.5 32.73 37 31.62 35.73 32.12Z" fill="#0C1829"/>
<path d="M117.31 3.15011L100.77 8.70011C100.68 8.70011 100.55 8.78011 100.46 8.83011L100.25 9.33011C100.12 9.63011 99.98 9.96011 99.83 10.2601C99.7256 10.5643 99.602 10.8616 99.46 11.1501L99.2 11.7701L99.11 11.9401C99.2241 12.6454 99.592 13.2847 100.145 13.7378C100.697 14.1908 101.396 14.4264 102.11 14.4001V14.4501C102.748 14.4137 103.387 14.5041 103.99 14.7161C104.594 14.928 105.149 15.2574 105.624 15.6851C106.099 16.1128 106.485 16.6303 106.759 17.2079C107.032 17.7855 107.189 18.4116 107.22 19.0501V19.2601C107.202 20.5344 106.685 21.7507 105.78 22.6481C104.875 23.5454 103.654 24.0524 102.38 24.0601H98.06C98.2147 24.6744 98.2854 25.3068 98.27 25.9401C98.2585 26.7521 98.045 27.5485 97.6487 28.2573C97.2523 28.9661 96.6857 29.5651 96 30.0001H102.41C105.168 29.9698 107.814 28.9045 109.823 27.0153C111.833 25.1261 113.06 22.551 113.26 19.8001C113.285 19.621 113.285 19.4392 113.26 19.2601C113.284 19.0809 113.284 18.8993 113.26 18.7201C113.078 16.1321 111.987 13.6917 110.18 11.8301L119.25 8.83011C122.61 7.66011 120.67 2.00011 117.31 3.15011Z" fill="#0C1829"/>
<path d="M97.3901 25.88V25.21C97.4096 25.121 97.4096 25.0289 97.3901 24.94V24.85V24.63V24.54V24.37V24.28C97.3833 24.1884 97.356 24.0995 97.3101 24.02C97.2613 23.784 97.191 23.5531 97.1001 23.33C97.0101 23.16 96.9701 22.96 96.8901 22.78C96.8782 22.7154 96.8468 22.6561 96.8001 22.61L95.5401 19.24C96.7601 16.05 98.0701 12.35 98.5401 11.24C99.2801 9.23996 100.06 7.45996 100.81 5.44996C101.68 3.11996 101.07 1.06996 99.3001 0.299955C97.5301 -0.470045 95.7201 0.469957 94.8601 2.71996C94.2401 4.26996 93.2301 6.96996 92.1201 9.87996L90.9401 12.53L89.7601 9.87996C89.5701 9.36996 89.3801 8.87996 89.1901 8.42996C88.9801 8.97996 88.7901 9.42996 88.6201 9.89996C88.3224 10.8899 87.7484 11.7743 86.9654 12.4492C86.1824 13.1241 85.2231 13.5615 84.2001 13.71C84.7901 15.32 85.5501 17.41 86.2601 19.3L84.8001 22.63C84.7596 22.679 84.7321 22.7375 84.7201 22.8C84.6301 22.98 84.5901 23.18 84.5001 23.35C84.4101 23.52 84.3501 23.81 84.2901 24.04C84.2486 24.1213 84.2215 24.2093 84.2101 24.3V24.39V24.56V24.65V24.87C84.1949 24.956 84.1949 25.0439 84.2101 25.13V25.79C84.2298 26.6192 84.4976 27.4234 84.9789 28.099C85.4602 28.7745 86.1328 29.2904 86.9101 29.58C87.4133 29.8068 87.9505 29.9487 88.5001 30H92.9001C93.5156 29.999 94.1246 29.8731 94.6901 29.63C95.4657 29.3499 96.1386 28.842 96.6204 28.1728C97.1022 27.5036 97.3705 26.7043 97.3901 25.88ZM91.7701 25.82C91.6499 25.9965 91.4868 26.1396 91.2962 26.2358C91.1055 26.332 90.8935 26.3782 90.6801 26.37C90.4654 26.3771 90.2524 26.3305 90.0603 26.2345C89.8682 26.1384 89.7032 25.996 89.5801 25.82C88.9701 25.05 88.4501 24.17 88.7601 23.73C89.3266 23.3456 89.9955 23.1402 90.6801 23.1402C91.3647 23.1402 92.0335 23.3456 92.6001 23.73C92.9101 24.17 92.3801 25.05 91.7701 25.82Z" fill="#0C1829"/>
<path d="M84.8701 11.6C85.0398 11.5086 85.2005 11.4015 85.3501 11.28L85.7801 10.91C85.8501 10.84 85.9101 10.75 85.9801 10.68C86.3333 10.2614 86.617 9.78871 86.8201 9.28004C87.1101 8.54004 87.5201 7.58005 87.9701 6.45005C87.9973 6.40292 88.0116 6.34946 88.0116 6.29504C88.0116 6.24063 87.9973 6.18717 87.9701 6.14004C87.9403 6.09614 87.8999 6.06036 87.8528 6.03592C87.8057 6.01148 87.7532 5.99915 87.7001 6.00005H80.6201C80.5501 6.17005 80.4801 6.33005 80.4201 6.52005C79.4901 8.88005 80.1401 10.96 82.0401 11.73C82.3607 11.8581 82.697 11.9422 83.0401 11.98H83.3101C83.6503 11.9757 83.9876 11.9184 84.3101 11.81C84.5601 11.76 84.7201 11.68 84.8701 11.6Z" fill="#0C1829"/>
<path d="M18.8901 9.00002C19.6824 9.01886 20.45 8.7234 21.0252 8.17816C21.6004 7.63293 21.9365 6.88223 21.9601 6.09002V6.00002C21.9295 5.22606 21.6129 4.49094 21.0717 3.93681C20.5305 3.38268 19.8031 3.04891 19.0301 3.00002C18.2271 2.99724 17.4552 3.31022 16.8808 3.87145C16.3065 4.43267 15.9758 5.19717 15.9601 6.00002C15.9521 6.39028 16.0219 6.77823 16.1655 7.14122C16.309 7.50422 16.5234 7.83499 16.7962 8.11425C17.0689 8.3935 17.3945 8.61565 17.754 8.76773C18.1136 8.91981 18.4997 8.99877 18.8901 9.00002Z" fill="#0C1829"/>
<path d="M28.91 16.1999C28.91 13.8399 27.5 12.3899 25.54 12.3899C23.58 12.3899 22.25 13.8899 22.21 16.2899V17.9999C22.21 19.9299 21.31 21.4799 19.43 21.9999C19.28 21.9999 18.59 21.9999 17.98 22.0899C18.1903 20.3764 17.9034 18.6385 17.1533 17.0835C16.4033 15.5285 15.2219 14.2221 13.75 13.3199C11.679 12.1054 9.21626 11.7456 6.88438 12.3169C4.5525 12.8882 2.53499 14.3456 1.25996 16.3799C0.0513169 18.4616 -0.304096 20.9304 0.268297 23.2685C0.840689 25.6065 2.29639 27.632 4.32996 28.9199C5.18807 29.4067 6.11046 29.7703 7.06996 29.9999C6.97996 30.1299 6.89996 30.3099 6.79996 30.4699C6.20996 31.4699 5.60996 32.4699 5.00996 33.4699C2.94996 36.8199 8.20996 39.9499 10.27 36.5599C11.68 34.2499 13.05 31.9599 14.48 29.5599L14.9 28.8899C18.08 29.1099 22.09 28.7799 24.76 26.5599L24.93 26.4299C26.1877 25.3742 27.2026 24.0591 27.905 22.5748C28.6075 21.0905 28.981 19.472 29 17.8299C28.91 15.8399 28.96 18.2199 28.91 16.1999ZM9.02996 24.5199C8.58035 24.5226 8.13472 24.4355 7.71919 24.2638C7.30365 24.0921 6.92654 23.8392 6.60996 23.5199C5.96814 22.872 5.60808 21.9969 5.60808 21.0849C5.60808 20.1729 5.96814 19.2978 6.60996 18.6499C6.92624 18.3294 7.30303 18.075 7.71846 17.9013C8.13389 17.7276 8.57968 17.6381 9.02996 17.6381C9.48023 17.6381 9.92602 17.7276 10.3415 17.9013C10.7569 18.075 11.1337 18.3294 11.45 18.6499C11.9295 19.1304 12.2561 19.742 12.3888 20.4077C12.5214 21.0734 12.4542 21.7635 12.1954 22.3911C11.9367 23.0187 11.4981 23.5557 10.9348 23.9345C10.3715 24.3133 9.70876 24.517 9.02996 24.5199Z" fill="#0C1829"/>
</g>
<defs>
<clipPath id="clip0_189_37667">
<rect width="121" height="38" fill="white"/>
</clipPath>
</defs>
</svg>
